<svg width="61" height="60" viewBox="0 0 61 60" fill="none" xmlns="http://www.w3.org/2000/svg">
<path fill-rule="evenodd" clip-rule="evenodd" d="M30.8422 48.175L12.6422 30L30.8422 11.8L39.9422 20.9L43.3422 17.5L30.8422 5L5.84222 30L30.8422 55L43.3422 42.5L39.9422 39.1L30.8422 48.175Z" fill="#004AAD"/>
<path fill-rule="evenodd" clip-rule="evenodd" d="M46.316 21.4739L55.416 30.5739L46.316 39.6739V21.4739Z" fill="#08EC65"/>
<path d="M40.0001 30.0001C40.0001 35.0984 35.8464 39.158 30.8422 39.158C25.8385 39.158 21.6843 35.0984 21.6843 30.0001C21.6843 24.9017 25.7439 20.8422 30.8422 20.8422C35.9406 20.8422 40.0001 24.9017 40.0001 30.0001Z" fill="#004AAD"/>
<path d="M30.7506 34.2125C30.7506 34.0293 30.6591 33.9377 30.4759 33.8462C29.9264 33.663 29.3769 33.663 28.9191 33.2047C28.8275 33.0215 28.8275 32.8384 28.7359 32.6552C28.5527 32.472 28.0948 32.3805 27.8201 32.2889H25.9885C25.7138 32.1973 25.5306 31.831 25.3475 31.5562C25.3475 31.4647 25.3475 31.2811 25.1643 31.2811C24.9812 31.1899 24.798 31.3731 24.6148 31.2811C24.5233 31.1899 24.5233 31.0979 24.5233 31.0068C24.5233 30.7316 24.7064 30.4569 24.8896 30.2737C25.1643 30.0905 25.4391 30.3653 25.7138 30.3653C25.8054 30.3653 25.8054 30.3653 25.8969 30.4569C26.1717 30.5484 26.2633 30.9148 26.2633 31.1899V31.3731C26.2633 31.4647 26.3548 31.4647 26.4464 31.4647C26.538 31.0068 26.538 30.5484 26.6296 30.091C26.6296 29.5415 27.1791 28.9916 27.6369 28.8089C27.8201 28.7177 27.9117 28.9009 28.0948 28.8089C28.6443 28.6257 30.018 28.0762 29.7433 27.344C29.5601 26.7026 29.0106 26.0624 28.278 26.1535C28.0948 26.2455 28.0033 26.3367 27.8201 26.4287C27.5454 26.6119 26.9959 27.1613 26.7212 27.1613C26.2633 27.0697 26.2633 26.4287 26.3548 26.1535C26.4464 25.7872 27.2706 24.5971 27.8201 24.7803L28.1864 25.1466C28.3696 25.2382 28.6443 25.2382 28.9191 25.2382C29.0106 25.2382 29.1022 25.2382 29.1938 25.1466C29.2854 25.055 29.2854 25.055 29.2854 24.9634C29.2854 24.6887 29.0106 24.4135 28.8275 24.2304C28.6443 24.0472 28.3696 23.864 28.0948 23.7729C27.1791 23.4977 25.7138 23.864 24.9812 24.5055C24.2485 25.1466 23.6991 26.2455 23.3327 27.1613C23.1496 27.7108 22.9664 28.443 22.8748 29.0845C22.7833 29.5424 22.6917 29.9087 22.9664 30.3662C23.2412 30.9156 23.7906 31.4655 24.3401 31.8314C24.7064 32.1062 25.4391 32.1062 25.8054 32.564C26.0801 32.9308 25.9885 33.3883 25.9885 33.8462C25.9885 34.3956 26.3548 34.8535 26.538 35.311C26.6296 35.5862 26.7212 35.9525 26.8127 36.2272C26.8127 36.3188 26.9043 36.8683 26.9043 36.9598C27.4538 37.2346 27.9117 37.5097 28.5527 37.6929C28.6443 37.6929 29.0106 37.143 29.0106 37.0514C29.2854 36.7767 29.4685 36.4104 29.7433 36.2272C29.9264 36.1356 30.1096 36.044 30.2927 35.8605C30.4759 35.6773 30.5675 35.311 30.6591 35.0362C30.7506 34.8535 30.8422 34.4872 30.7506 34.2125ZM30.9338 25.7872C31.0254 25.7872 31.1169 25.6956 31.3001 25.604C31.5748 25.4209 31.85 25.1462 32.1243 24.963C32.3995 24.7798 32.6742 24.5051 32.8574 24.3219C33.1321 24.1388 33.3153 23.7725 33.4069 23.4973C33.4984 23.3141 33.7736 22.9478 33.6816 22.6731C33.59 22.4899 33.1321 22.3984 32.949 22.3068C32.2159 22.1236 31.5748 22.0325 30.8422 22.0325C30.5675 22.0325 30.2012 22.1236 30.1096 22.3988C30.018 22.8567 30.3843 22.7651 30.7506 22.8567C30.7506 22.8567 30.8422 23.5893 30.8422 23.6809C30.9338 24.1392 30.6591 24.4135 30.6591 24.8714C30.6591 25.1462 30.6591 25.6041 30.8422 25.7872H30.9338ZM38.6264 32.1977C38.7184 32.0146 38.7184 31.7398 38.8096 31.5567C38.9016 31.0984 38.9016 30.6409 38.9016 30.183C38.9016 29.2672 38.8096 28.3519 38.5353 27.5272C38.3521 27.2525 38.2601 26.9777 38.1685 26.7026C37.9854 26.2451 37.7106 25.7868 37.3443 25.4209C36.978 24.963 36.5197 23.6809 35.6959 24.0472C35.4212 24.1392 35.238 24.5055 35.0548 24.6887L34.5054 25.5129C34.4134 25.6045 34.3222 25.7876 34.4134 25.8792C34.4134 25.9708 34.5054 25.9708 34.5965 25.9708C34.7797 26.0628 34.8717 26.0628 35.0548 26.154C35.1464 26.154 35.238 26.246 35.1464 26.3371C35.1464 26.3371 35.1464 26.4291 35.0548 26.4291C34.5965 26.887 34.1391 27.2533 33.6812 27.7108C33.5896 27.8024 33.498 27.9855 33.498 28.0771C33.498 28.1687 33.5896 28.1687 33.5896 28.2603C33.5896 28.3523 33.498 28.3523 33.4064 28.4434C33.2233 28.5354 33.0401 28.6266 32.9485 28.7186C32.8569 28.9018 32.9485 29.1765 32.8569 29.3597C32.7654 29.8176 32.4902 30.1839 32.307 30.6418C32.1239 30.9161 32.0327 31.1912 31.8496 31.466C31.8496 31.8323 31.7576 32.107 31.9407 32.3818C32.3991 33.0228 33.2228 32.6565 33.8639 32.9317C34.047 33.0228 34.2302 33.0228 34.3222 33.206C34.5965 33.4811 34.5965 33.939 34.6885 34.2138C34.7797 34.5801 34.8717 34.9464 35.0548 35.3127C35.1464 35.7711 35.3296 36.229 35.4212 36.5948C36.2458 35.9538 36.978 35.2216 37.5275 34.3054C38.0769 33.663 38.3521 32.9308 38.6264 32.1977Z" fill="#08EC65"/>
</svg>
