<svg width="109" height="108" viewBox="0 0 109 108" fill="none" xmlns="http://www.w3.org/2000/svg">
<g filter="url(#filter0_d_1_3)">
<circle cx="59" cy="50" r="50" fill="#004AAD"/>
<g clip-path="url(#clip0_1_3)">
<path d="M51.4633 54.7493C51.9806 55.2241 52.2629 55.8595 52.3066 56.5139C52.3503 57.1765 52.1448 57.858 51.6865 58.4072C52.1283 58.0552 52.6645 57.8733 53.2078 57.858C53.8586 57.8391 54.5212 58.06 55.0397 58.5111C55.0468 58.5171 55.0704 58.5395 55.1082 58.5749L54.6724 59.0426L55.1106 58.5737C55.1295 58.5915 55.146 58.6104 55.1626 58.6293C55.6563 59.1171 55.909 59.749 55.9303 60.3938C55.9504 60.9785 55.7791 61.5714 55.4236 62.0734C55.733 61.9128 56.0732 61.823 56.4169 61.8065C57.0205 61.7758 57.6417 61.9683 58.1342 62.3793C58.159 62.3994 58.1815 62.4195 58.2016 62.4372C58.7047 62.8872 58.9705 63.4919 59.0047 64.1132C59.039 64.7368 58.8394 65.3782 58.4083 65.8943L57.2496 67.2845C57.474 67.4203 57.7008 67.5597 57.9287 67.7002C60.2898 69.1554 62.9331 70.7841 64.9103 68.4219L60.148 64.8337L61.3055 63.2994L66.4257 67.1581L66.8851 67.0506L66.9761 67.0353C67.6245 66.9479 68.1206 66.7022 68.4785 66.3124C68.7702 65.9935 68.9899 65.5648 69.1422 65.0344L62.6685 60.6702L63.7445 59.0757L70.51 63.6372C71.3072 63.4317 71.932 63.1364 72.3844 62.7513C72.7222 62.4643 72.9691 62.1171 73.1262 61.7084L64.9918 55.8891L66.1044 54.3253L74.5884 60.395C75.1199 60.3856 75.5758 60.2273 75.9408 59.9722C76.2667 59.7442 76.5313 59.4348 76.7227 59.0792C76.9175 58.7178 77.0345 58.3127 77.0628 57.9005C77.1018 57.3312 76.973 56.756 76.6471 56.2741C76.5301 56.2316 76.4203 56.1654 76.3258 56.078C73.5797 53.8032 70.8915 51.7587 68.0863 49.9882C65.3249 48.2472 62.4347 46.759 59.2386 45.5614C58.7401 45.5779 58.309 45.5744 57.9358 45.5708C56.7039 45.559 56.4169 45.5566 55.5003 47.3531C54.8177 48.689 53.9236 49.6894 52.7814 50.2386C51.6983 50.7595 50.4381 50.8575 48.9794 50.4335C46.8203 49.8063 46.3148 49.2902 46.6951 47.9827C46.7991 47.6236 46.9951 47.2728 47.2526 46.8122C47.3199 46.6917 47.392 46.5606 47.5703 46.2263C48.6888 44.1204 49.6656 42.4243 50.6211 41.066C49.6243 40.9515 48.8223 40.7896 48.0357 40.5499C47.1652 40.2853 46.3597 39.9404 45.364 39.4668L38.5123 51.8012L41.2183 54.6005L42.2482 53.4123C42.7183 52.8713 43.3608 52.5571 44.0246 52.4945C44.6872 52.4319 45.3699 52.6174 45.9215 53.0744C45.9321 53.0827 45.9262 53.0792 45.9664 53.1146C46.492 53.5705 46.7979 54.2001 46.8616 54.8497C46.9065 55.302 46.8345 55.765 46.6384 56.1855L47.6849 54.9595L47.6837 54.9583C47.6896 54.9512 47.6967 54.9442 47.7026 54.9371V54.9359C47.7168 54.9194 47.7321 54.904 47.7487 54.8886C48.2187 54.3772 48.8518 54.0985 49.5003 54.0571C50.1652 54.0146 50.8491 54.2213 51.3912 54.6843L51.3924 54.6831C51.4007 54.6902 51.4078 54.6973 51.4149 54.7032C51.4326 54.7174 51.4479 54.7328 51.4633 54.7493ZM56.0071 68.7751L54.8094 70.2113C54.7905 70.2338 54.7728 70.255 54.7551 70.2739C54.3181 70.7629 53.7181 71.0216 53.1039 71.0523C52.5015 71.0818 51.8802 70.8905 51.3865 70.4783C51.3629 70.4582 51.3405 70.4393 51.3204 70.4216C50.8172 69.9704 50.5503 69.3668 50.5161 68.7444C50.4901 68.2719 50.5987 67.7889 50.842 67.3577L50.7145 67.503C50.6991 67.5219 50.7109 67.5054 50.6531 67.568C50.1724 68.0806 49.5251 68.344 48.8672 68.3617C48.2164 68.3806 47.5526 68.1597 47.0341 67.7085C47.0211 67.6967 47.0081 67.6849 46.9951 67.6719C46.9833 67.6613 46.9739 67.6518 46.9644 67.6436L46.9633 67.6448C46.9455 67.6282 46.9278 67.6093 46.9125 67.5904C46.4188 67.1026 46.1648 66.4707 46.1436 65.8258C46.1294 65.3806 46.2251 64.9294 46.4294 64.5183C45.99 64.8951 45.4491 65.103 44.8963 65.1384C44.2325 65.1809 43.5487 64.9731 43.0053 64.5101L43.0042 64.5112C42.9971 64.5053 42.9888 64.4983 42.9817 64.4912C42.9652 64.477 42.9486 64.4616 42.9333 64.4463C42.4171 63.9715 42.1337 63.3349 42.0911 62.6817C42.0463 62.0096 42.2565 61.3187 42.729 60.7659L43.0939 60.3372C42.6853 60.6549 42.201 60.8415 41.7061 60.8888C41.0435 60.9514 40.3608 60.7647 39.8092 60.3088H39.8081C39.7939 60.297 39.7797 60.284 39.7655 60.271L39.7632 60.2687C39.2388 59.8128 38.9328 59.1832 38.8691 58.5336C38.8041 57.8781 38.9848 57.2013 39.4325 56.6592C39.4443 56.6438 39.4573 56.6297 39.4703 56.6167L39.4714 56.6155L39.9557 56.0568L37.0525 53.0521L35.8714 55.0812L35.8678 55.0883L35.8513 55.1155L35.8442 55.1237C35.4533 55.7663 34.8367 56.1879 34.1564 56.3521C33.482 56.5151 32.7426 56.4277 32.1048 56.0556L32.0977 56.0486L32.0694 56.032L32.0611 56.0273L28.3252 53.7619C27.6733 53.3662 27.248 52.7462 27.0803 52.0611C26.9126 51.3784 27.0024 50.6296 27.3815 49.9788L39.221 29.6447L39.2246 29.6364L39.2411 29.6093L39.2482 29.6022C39.6379 28.9585 40.2557 28.538 40.936 28.3738C41.6104 28.2108 42.3486 28.2982 42.9876 28.6703L42.9947 28.6738L43.023 28.6904L43.0301 28.6974L46.7672 30.964C47.418 31.3585 47.8444 31.9786 48.0121 32.6636C48.1786 33.3475 48.0888 34.0951 47.7097 34.7471L46.0207 37.6491C47.0353 38.1357 47.816 38.4794 48.592 38.7157C49.5251 39.0003 50.5278 39.1586 52.0267 39.2649L52.0231 39.3027C55.6031 35.4168 59.6933 35.7204 70.4757 36.5212L70.9919 36.5601L70.2903 35.3542C69.9112 34.7034 69.8214 33.9546 69.9879 33.2719C70.1557 32.5868 70.582 31.9668 71.2328 31.5711L74.9699 29.3057L74.977 29.2974L75.0053 29.2809L75.0124 29.2774C75.6514 28.9053 76.3896 28.8179 77.064 28.9809C77.7443 29.1451 78.3621 29.5667 78.7518 30.2093L78.7589 30.2175L78.7755 30.2447L78.779 30.2518L90.6185 50.5859C90.9976 51.2379 91.0874 51.9855 90.9197 52.6682C90.752 53.3544 90.3268 53.9733 89.6748 54.369L85.9389 56.6356L85.9306 56.6391L85.9023 56.6556L85.8952 56.6627C85.2574 57.0348 84.518 57.1222 83.8436 56.9592C83.1633 56.795 82.5467 56.3745 82.1558 55.7308L82.1487 55.7237L82.1322 55.6966L82.1286 55.6883L80.9121 53.5989L78.414 55.4887C78.8628 56.2777 79.04 57.1647 78.9798 58.0293C78.9337 58.7131 78.7388 59.3876 78.414 59.9887C78.0857 60.597 77.6215 61.1356 77.0392 61.5431C76.4486 61.9553 75.7471 62.2281 74.9533 62.299C74.6864 63.0467 74.2435 63.6833 73.6258 64.2101C72.9502 64.7853 72.0773 65.2128 71.006 65.4916C70.7722 66.3373 70.4037 67.0459 69.8911 67.6058C69.2367 68.3204 68.3781 68.7692 67.2973 68.9286L66.8473 69.0337C63.8627 73.6082 60.1858 71.3428 56.9212 69.3314C56.6106 69.14 56.3035 68.9511 56.0071 68.7751ZM34.2143 54.1115L46.0479 33.7845C46.1707 33.5731 46.2002 33.3333 46.1471 33.1148C46.0963 32.9081 45.9687 32.7203 45.775 32.6034L42.0462 30.3415L42.0451 30.3439L42.0167 30.3274H42.0179C41.8195 30.2151 41.5927 30.188 41.386 30.2388C41.1852 30.2872 41.0045 30.4065 40.8923 30.586L40.8946 30.5872L40.8781 30.6144L29.0433 50.9402C28.9205 51.1516 28.8909 51.3925 28.9441 51.6099C28.9949 51.8177 29.1224 52.0044 29.3173 52.1225L33.0544 54.389H33.0532L33.0662 54.3961L33.0674 54.3938C33.2658 54.5107 33.4961 54.5378 33.7052 54.4871C33.906 54.4386 34.0867 54.3193 34.1989 54.1398L34.1977 54.1386L34.2131 54.1115L34.2143 54.1115ZM73.4628 36.9877C73.536 37.0633 73.595 37.1507 73.6399 37.2464L74.5825 38.9094L83.7857 54.7186H83.7869L83.8023 54.7457L83.8011 54.7469C83.9133 54.9264 84.094 55.0457 84.2948 55.0942C84.5038 55.1449 84.7342 55.1178 84.9326 55.002L84.9338 55.0044L84.9468 54.9961H84.9456L88.6826 52.7296C88.8775 52.6126 89.0051 52.4248 89.0559 52.2181C89.109 51.9996 89.0795 51.7587 88.9566 51.5484L77.1218 31.2214L77.1053 31.1943L77.1077 31.1931C76.9955 31.0136 76.8148 30.8943 76.614 30.8459C76.4073 30.7962 76.1805 30.8222 75.9821 30.9344H75.9832L75.9549 30.9522L75.9537 30.9498L72.2249 33.2104C72.0312 33.3286 71.9037 33.5152 71.8529 33.7231C71.7997 33.9404 71.8293 34.1813 71.9521 34.3927L73.4628 36.9877Z" fill="white"/>
</g>
</g>
<defs>
<filter id="filter0_d_1_3" x="0" y="0" width="109" height="108" filterUnits="userSpaceOnUse" color-interpolation-filters="sRGB">
<feFlood flood-opacity="0" result="BackgroundImageFix"/>
<feColorMatrix in="SourceAlpha" type="matrix" values="0 0 0 0 0 0 0 0 0 0 0 0 0 0 0 0 0 0 127 0" result="hardAlpha"/>
<feOffset dx="-5" dy="4"/>
<feGaussianBlur stdDeviation="2"/>
<feComposite in2="hardAlpha" operator="out"/>
<feColorMatrix type="matrix" values="0 0 0 0 0 0 0 0 0 0.290196 0 0 0 0 0.678431 0 0 0 0.4 0"/>
<feBlend mode="normal" in2="BackgroundImageFix" result="effect1_dropShadow_1_3"/>
<feBlend mode="normal" in="SourceGraphic" in2="effect1_dropShadow_1_3" result="shape"/>
</filter>
<clipPath id="clip0_1_3">
<rect width="64" height="64" fill="white" transform="translate(27 18)"/>
</clipPath>
</defs>
</svg>
