<svg width="109" height="108" viewBox="0 0 109 108" fill="none" xmlns="http://www.w3.org/2000/svg">
<g filter="url(#filter0_d_1_48)">
<circle cx="59" cy="50" r="50" fill="#004AAD"/>
<g clip-path="url(#clip0_1_48)">
<path d="M51.3281 23.7083C51.599 23.6302 51.8802 23.5885 52.1719 23.5885C52.5729 23.5885 52.9531 23.6667 53.3073 23.8073C53.6719 23.9531 54 24.1667 54.276 24.4271C54.5521 24.6927 54.776 25.0052 54.9271 25.3594C55.0729 25.6979 55.1563 26.0729 55.1563 26.4583V27.7969H60.6198C61.9427 25.8854 64.0521 23.6875 65.5 22.1823C65.9635 21.6979 66.3646 21.2812 66.6354 20.9844V20.9792C66.6406 20.9687 66.651 20.9583 66.6615 20.9531C67.2031 20.276 67.7865 19.8333 68.3594 19.5833C69.0208 19.2917 69.6771 19.2552 70.25 19.4062C70.4792 19.4687 70.6979 19.5573 70.8958 19.6771C71.099 19.7969 71.2865 19.9427 71.4531 20.1146C71.6198 20.2812 71.7656 20.474 71.8906 20.6875C72.0104 20.8958 72.1094 21.125 72.1771 21.3646C72.3385 21.9323 72.349 22.5729 72.1563 23.2396C71.9896 23.8229 71.6667 24.4219 71.151 24.9948L71.1354 25.0104C71.0625 25.0937 70.9271 25.2396 70.75 25.4479L70.5 25.7344H70.6094C70.7188 25.7344 70.8281 25.7396 70.9375 25.75C71.0365 25.7604 71.1406 25.7708 71.2396 25.7865H82.6667C83.0313 25.7865 83.3854 25.8698 83.7083 26.0156C84.0365 26.1667 84.3385 26.3906 84.5833 26.6719C84.8281 26.9479 85.0313 27.276 85.1667 27.6406C85.2969 27.9896 85.3698 28.375 85.3698 28.7708C85.3698 29.0677 85.3281 29.3594 85.25 29.6406C85.2135 29.776 85.1667 29.9062 85.1146 30.0312H85.2188C85.5885 30.0312 85.9375 30.1146 86.2604 30.2604C86.5885 30.4115 86.8906 30.6406 87.1354 30.9167C87.3802 31.1927 87.5781 31.5208 87.7135 31.8854C87.8438 32.2344 87.9167 32.6198 87.9167 33.0156C87.9167 33.4115 87.8438 33.7969 87.7135 34.1458C87.5781 34.5104 87.3802 34.8385 87.1354 35.1146C86.8854 35.3906 86.5885 35.6146 86.2604 35.7708C85.9375 35.9219 85.5885 36 85.2188 36H85.125C85.1823 36.1302 85.2292 36.2656 85.2708 36.401C85.3542 36.6875 85.3958 36.9844 85.3958 37.2865V37.2917C85.3958 37.6875 85.3229 38.0729 85.1927 38.4219C85.0573 38.7865 84.8594 39.1146 84.6146 39.3906C84.3646 39.6667 84.0677 39.8958 83.7396 40.0469C83.4167 40.1979 83.0677 40.276 82.6979 40.276H82.4635C82.5156 40.3958 82.5573 40.526 82.5885 40.651C82.6615 40.9167 82.6979 41.2031 82.6979 41.4896V41.5C82.6979 41.8958 82.625 42.2708 82.4948 42.6198C82.3594 42.9844 82.1615 43.3125 81.9167 43.5885C81.6667 43.8646 81.3698 44.0885 81.0417 44.2448C80.7188 44.3958 80.3698 44.474 80 44.474H79.5729V53.1771C81.4844 54.5937 83.6823 56.8542 85.1927 58.4062C85.6719 58.901 86.0833 59.3229 86.3906 59.6198L86.401 59.625C86.4115 59.6354 86.4167 59.6406 86.4271 59.651C87.099 60.2292 87.5365 60.849 87.7865 61.4583C88.0729 62.1615 88.1094 62.8542 87.9583 63.4635C87.8958 63.7031 87.8073 63.9375 87.6927 64.151C87.5729 64.3698 87.4271 64.5677 87.2604 64.7448C87.0885 64.9271 86.8958 65.0833 86.6875 65.2083C86.4792 65.3333 86.25 65.4375 86.0052 65.5156C85.4375 65.6875 84.7865 65.6979 84.1198 65.4948C83.5313 65.3125 82.9271 64.9635 82.349 64.4062C82.2656 64.3281 82.1094 64.1771 81.9115 63.9896L81.6302 63.724V63.8542C81.6302 63.9687 81.625 64.0833 81.6146 64.2031C81.6042 64.3073 81.5938 64.4115 81.5781 64.526V76.3854C81.5781 76.7708 81.4948 77.1458 81.349 77.4844C81.1979 77.8385 80.974 78.151 80.6979 78.4167C80.4219 78.6823 80.0938 78.8958 79.7292 79.0365C79.375 79.1771 78.9948 79.2552 78.5938 79.2552C78.2917 79.2552 78 79.2083 77.724 79.1302C77.5885 79.0885 77.4583 79.0417 77.3333 78.9844V79.1146C77.3333 79.5 77.25 79.875 77.1042 80.2135C76.9531 80.5677 76.7292 80.8802 76.4531 81.1458C76.1771 81.4115 75.849 81.625 75.4844 81.7656C75.1302 81.9062 74.75 81.9844 74.349 81.9844C73.9479 81.9844 73.5677 81.9062 73.2135 81.7656C72.849 81.6198 72.5208 81.4062 72.2448 81.1458C71.9688 80.8802 71.7448 80.5677 71.5938 80.2135C71.4479 79.875 71.3646 79.5 71.3646 79.1146V79C71.2448 79.0573 71.1146 79.1042 70.9896 79.1458L70.9688 79.1562C70.6823 79.2448 70.3802 79.2865 70.0781 79.2865H70.0729C69.6719 79.2865 69.2917 79.2083 68.9375 79.0677C68.5729 78.9219 68.2448 78.7083 67.9688 78.4479C67.6927 78.1823 67.4688 77.8698 67.3177 77.5156C67.1719 77.1771 67.0885 76.8021 67.0885 76.4167V76.151C66.9688 76.2031 66.8438 76.25 66.7135 76.2865C66.4427 76.3646 66.1615 76.4062 65.8698 76.4062C65.4688 76.4062 65.0885 76.3281 64.7344 76.1875C64.3698 76.0417 64.0417 75.8281 63.7656 75.5677C63.4896 75.3021 63.2656 74.9896 63.1146 74.6354C62.9688 74.2969 62.8854 73.9219 62.8854 73.5365V72.1979H57.4271C56.1042 74.1094 53.9948 76.3073 52.5469 77.8125C52.0781 78.2969 51.6823 78.7135 51.4115 79.0104L51.3802 79.0469C50.8385 79.7187 50.2604 80.1562 49.6875 80.4115C49.026 80.7031 48.3698 80.7396 47.7969 80.5885C47.5677 80.526 47.349 80.4375 47.151 80.3177C46.9479 80.1979 46.7604 80.0521 46.5938 79.8802C46.4323 79.7187 46.2917 79.5312 46.1719 79.3229L46.1615 79.3021C46.0417 79.0937 45.9479 78.8646 45.875 78.625C45.7135 78.0573 45.7031 77.4167 45.8958 76.75C46.0625 76.1667 46.3854 75.5677 46.901 74.9948L46.9167 74.9792C46.9896 74.8958 47.125 74.75 47.3021 74.5417L47.5521 74.2552H47.4427C47.3333 74.2552 47.224 74.25 47.1146 74.2396C47.0156 74.2292 46.9115 74.2187 46.8125 74.2031H35.25C34.8854 74.2031 34.5313 74.1198 34.2083 73.974C33.8802 73.8229 33.5781 73.5937 33.3333 73.3177C33.0885 73.0417 32.8854 72.7135 32.7552 72.349C32.625 72 32.5521 71.6146 32.5521 71.2187C32.5521 70.9219 32.5938 70.6302 32.6719 70.349C32.7083 70.2135 32.7552 70.0833 32.8073 69.9583H32.7031C32.3333 69.9583 31.9844 69.875 31.6615 69.7292C31.3333 69.5781 31.0313 69.349 30.7865 69.0729C30.5417 68.7969 30.3438 68.4687 30.2083 68.1042C30.0729 67.7604 30 67.375 30 66.9792C30 66.5833 30.0729 66.1979 30.2031 65.849C30.3385 65.4844 30.5365 65.1562 30.7813 64.8802C31.0313 64.6042 31.3281 64.3802 31.6563 64.224C31.9792 64.0729 32.3281 63.9948 32.6979 63.9948H32.7917C32.7344 63.8646 32.6875 63.7292 32.6458 63.5937C32.5625 63.3073 32.5208 63.0104 32.5208 62.7083V62.7031C32.5208 62.3073 32.5938 61.9219 32.724 61.5729C32.8594 61.2083 33.0573 60.8802 33.3021 60.6042C33.5521 60.3281 33.849 60.099 34.1771 59.9479C34.5 59.7969 34.849 59.7187 35.2188 59.7187H35.4531C35.4063 59.599 35.3646 59.4792 35.3281 59.3542L35.3229 59.3437C35.25 59.0781 35.2135 58.7917 35.2135 58.5052V58.4948C35.2135 58.099 35.2865 57.724 35.4167 57.375C35.5521 57.0104 35.75 56.6823 35.9948 56.4062C36.2448 56.1302 36.5417 55.901 36.8698 55.75C37.1927 55.599 37.5417 55.5208 37.9115 55.5208H38.4688V46.8177C36.5573 45.401 34.3594 43.1406 32.849 41.5885C32.3646 41.0885 31.9531 40.6667 31.6458 40.3698L31.6198 40.3437C30.9479 39.7656 30.5052 39.1458 30.2552 38.5365C29.9688 37.8333 29.9323 37.1406 30.0833 36.5313C30.1458 36.2917 30.2344 36.0573 30.349 35.8437C30.4688 35.625 30.6146 35.4271 30.7813 35.25C30.9531 35.0677 31.1458 34.9115 31.3542 34.7865C31.5625 34.6615 31.7917 34.5573 32.0365 34.4792C32.6042 34.3073 33.2552 34.2969 33.9219 34.5C34.5104 34.6823 35.1146 35.0312 35.6927 35.5885C35.776 35.6667 35.9323 35.8177 36.1302 36.0052L36.4115 36.2708V36.1406C36.4115 36.026 36.4167 35.9115 36.4271 35.7917C36.4375 35.6875 36.4479 35.5833 36.4635 35.4687V23.6042C36.4635 23.2187 36.5469 22.8437 36.6927 22.5052C36.8438 22.151 37.0677 21.8385 37.3438 21.5729C37.6198 21.3073 37.9479 21.0937 38.3125 20.9531C38.6667 20.8125 39.0469 20.7344 39.4479 20.7344C39.75 20.7344 40.0417 20.7812 40.3177 20.8594C40.4531 20.901 40.5833 20.9479 40.7083 21.0052V20.8698C40.7083 20.4844 40.7917 20.1094 40.9375 19.7708C41.0885 19.4167 41.3125 19.1042 41.5885 18.8385C41.8646 18.5729 42.1927 18.3594 42.5573 18.2187C42.9115 18.0781 43.2969 18 43.6979 18C44.099 18 44.4792 18.0781 44.8333 18.2187C45.1979 18.3646 45.526 18.5781 45.8021 18.8385C46.0781 19.1042 46.3021 19.4167 46.4531 19.7708C46.599 20.1094 46.6823 20.4844 46.6823 20.8698V20.9844C46.8125 20.9271 46.9427 20.875 47.0781 20.8333C47.3646 20.7448 47.6667 20.6979 47.9688 20.6979H47.974C48.375 20.6979 48.7552 20.776 49.1094 20.9167C49.474 21.0625 49.8021 21.276 50.0781 21.5365C50.3542 21.8021 50.5781 22.1146 50.7292 22.4687C50.875 22.8073 50.9583 23.1823 50.9583 23.5677V23.8333C51.0729 23.7917 51.1979 23.7448 51.3281 23.7083ZM40.4896 47.5625V55.5208H46.7969H46.8021C46.8438 55.5208 46.8854 55.526 46.9271 55.5312C46.9479 55.5365 46.9688 55.5365 46.9844 55.5417C47.0469 55.5365 47.1146 55.5313 47.1823 55.526C47.2708 55.5208 47.3594 55.5156 47.4375 55.5156H50.9323V46.9115C50.9323 45.5677 50.974 45.5417 51.375 45.2865C51.5417 45.1823 51.8021 45.0156 52.2083 44.4844C52.5885 43.9948 52.8854 43.4427 53.0938 42.849C53.2917 42.276 53.3958 41.6615 53.3958 41.026V36.1354C53.3958 36.0937 53.3958 36.0573 53.3906 36.0156V26.4635C53.3906 26.3125 53.3594 26.1667 53.3073 26.0365L53.3021 26.026C53.2396 25.8854 53.151 25.7552 53.0365 25.6458C52.9271 25.5417 52.7969 25.4531 52.651 25.3958L52.6406 25.3906C52.5 25.3333 52.3385 25.3021 52.1719 25.3021C52.0052 25.3021 51.849 25.3333 51.7031 25.3906C51.5521 25.4479 51.4167 25.5365 51.3073 25.6458C51.1927 25.7552 51.1042 25.8802 51.0417 26.0208C50.9844 26.1562 50.9531 26.3021 50.9531 26.4583V31.5625V31.5885C50.9531 31.7344 50.8333 31.8542 50.6875 31.8542H49.4531C49.3073 31.8542 49.1875 31.7344 49.1875 31.5885V23.5781C49.1875 23.4219 49.1563 23.276 49.099 23.1406C49.0365 23 48.9479 22.8698 48.8333 22.7656C48.7188 22.6562 48.5885 22.5677 48.4375 22.5104C48.2969 22.4531 48.1354 22.4219 47.9688 22.4219C47.8021 22.4219 47.6458 22.4531 47.5 22.5104C47.349 22.5677 47.2135 22.6562 47.1042 22.7656C46.9896 22.875 46.901 23 46.8385 23.1406C46.7813 23.276 46.75 23.4219 46.75 23.5781V31.5885C46.75 31.7344 46.6302 31.8542 46.4844 31.8542H45.1771C45.0313 31.8542 44.9115 31.7344 44.9115 31.5885V20.875C44.9115 20.724 44.8802 20.5781 44.8281 20.4479L44.8229 20.4375C44.7604 20.2969 44.6719 20.1667 44.5573 20.0625C44.4427 19.9531 44.3073 19.8646 44.1615 19.8073C44.0208 19.75 43.8594 19.7187 43.6927 19.7187C43.5313 19.7187 43.375 19.75 43.2396 19.8021H43.2292C43.0781 19.8594 42.9427 19.9479 42.8333 20.0573C42.7188 20.1667 42.6302 20.2917 42.5677 20.4323C42.5104 20.5677 42.4792 20.7135 42.4792 20.8698V31.5885C42.4792 31.7344 42.3594 31.8542 42.2135 31.8542H40.9375C40.7917 31.8542 40.6719 31.7344 40.6719 31.5885V23.6042C40.6719 23.4479 40.6406 23.3021 40.5833 23.1667C40.5208 23.026 40.4271 22.8958 40.3177 22.7917C40.2031 22.6823 40.0729 22.5937 39.9219 22.5365C39.7813 22.4792 39.6198 22.4479 39.4531 22.4479C39.2865 22.4479 39.1302 22.4792 38.9844 22.5365C38.8385 22.5937 38.7083 22.6771 38.599 22.7812L38.5885 22.7917C38.474 22.901 38.3854 23.026 38.3229 23.1719C38.2656 23.3073 38.2344 23.4531 38.2344 23.6094C38.2344 25.5469 38.224 27.7187 38.2188 29.8854C38.2083 31.7969 38.2031 33.7031 38.2031 36.1406L38.0573 38.4948C38.0521 38.5885 37.9948 38.6771 37.9063 38.7187L37.4375 38.9375C37.3958 38.9583 37.3542 38.974 37.3021 38.974C37.2188 38.974 37.1354 38.9635 37.0521 38.9375C36.9688 38.9115 36.8906 38.8802 36.8229 38.8333C36.6667 38.7448 36.4688 38.6042 36.2604 38.4375C36.0417 38.2604 35.8177 38.0677 35.599 37.875C35.1354 37.4583 34.651 36.9948 34.4688 36.8177C34.125 36.4896 33.7865 36.2812 33.474 36.1667C33.1406 36.0521 32.8333 36.0417 32.5781 36.1198C32.4896 36.1458 32.401 36.1875 32.3177 36.2396C32.2344 36.2917 32.1615 36.349 32.0938 36.4219C32.026 36.4896 31.9688 36.5729 31.9219 36.6562C31.875 36.7448 31.8385 36.8385 31.8125 36.9375C31.7344 37.2448 31.7656 37.6042 31.9427 37.9896C32.1042 38.3437 32.3802 38.7083 32.8021 39.0729L32.8229 39.0885L32.8698 39.1302L32.901 39.1615C33.0729 39.3281 33.3125 39.5677 33.6146 39.8698C35.0104 41.2656 37.625 43.875 39.6354 45.3437C39.6563 45.3594 39.6771 45.375 39.6979 45.3958C39.8385 45.5573 39.9583 45.7292 40.0677 45.9115C40.1771 46.0937 40.2656 46.2865 40.3385 46.4844C40.3958 46.6562 40.4427 46.8281 40.4688 47.0104C40.4948 47.1823 40.5052 47.3646 40.5 47.5573L40.4896 47.5625ZM52.9427 46.2708V55.5833C53.6719 55.6927 54.3646 55.9219 55.0052 56.2552C55.7135 56.625 56.3594 57.1302 56.9167 57.7292H62.9896C63.1146 57.0208 63.3385 56.3385 63.6563 55.7083C64.026 54.9687 64.5156 54.3021 65.1042 53.724V44.4167C64.375 44.3073 63.6823 44.0781 63.0417 43.7448C62.3281 43.375 61.6875 42.8698 61.1302 42.2708H55.0521C54.9271 42.9792 54.7031 43.6615 54.3854 44.2917C54.0208 45.0208 53.526 45.6927 52.9427 46.2708ZM62.8854 63.8646V59.7448H57.5C56.2292 59.7448 56.2083 59.7031 55.9635 59.2969C55.8646 59.1302 55.7135 58.875 55.2188 58.4635C54.7604 58.0833 54.25 57.7865 53.6979 57.5833C53.1667 57.3854 52.5938 57.2812 52.0052 57.2812H47.4375C47.401 57.2812 47.3646 57.2812 47.3229 57.2865H37.9219C37.7813 57.2865 37.651 57.3177 37.526 57.375C37.3958 57.4375 37.2813 57.526 37.1823 57.6354C37.0833 57.75 37 57.8854 36.9427 58.0312C36.8906 58.1771 36.8594 58.3333 36.8594 58.5052C36.8594 58.6719 36.8906 58.8333 36.9427 58.9792C37 59.1302 37.0833 59.2656 37.1823 59.3802C37.2813 59.4896 37.3958 59.5781 37.526 59.6406C37.6458 59.6979 37.7813 59.7292 37.9219 59.7292H43.1667H43.1927C43.3385 59.7292 43.4583 59.849 43.4583 59.9948V61.2292C43.4583 61.375 43.3385 61.4948 43.1927 61.4948H35.224C35.0833 61.4948 34.9531 61.526 34.8281 61.5833C34.6979 61.6458 34.5781 61.7344 34.4792 61.8437C34.3802 61.9583 34.2969 62.0937 34.2396 62.2396C34.1875 62.3854 34.1563 62.5417 34.1563 62.7135C34.1563 62.8802 34.1875 63.0417 34.2396 63.1875C34.2969 63.3385 34.3802 63.474 34.4792 63.5885C34.5781 63.6979 34.6927 63.7865 34.8281 63.849C34.9479 63.9062 35.0833 63.9375 35.224 63.9375H43.1875C43.3333 63.9375 43.4531 64.0573 43.4531 64.2031V65.5104C43.4531 65.6562 43.3333 65.776 43.1875 65.776H32.6979C32.5573 65.776 32.4271 65.8073 32.3021 65.8646C32.1719 65.9271 32.0521 66.0156 31.9583 66.125C31.8594 66.2396 31.776 66.375 31.7188 66.526C31.6667 66.6719 31.6354 66.8281 31.6354 67C31.6354 67.1719 31.6667 67.3281 31.7188 67.474C31.7708 67.6198 31.849 67.75 31.9479 67.8594L31.9583 67.8698C32.0573 67.9792 32.1771 68.0677 32.3073 68.1302C32.4271 68.1875 32.5625 68.2187 32.7031 68.2187H43.1927C43.3385 68.2187 43.4583 68.3385 43.4583 68.4844V69.7604C43.4583 69.9062 43.3385 70.026 43.1927 70.026H35.25C35.1094 70.026 34.9792 70.0573 34.8542 70.1146C34.7292 70.1719 34.6146 70.2552 34.5208 70.3594L34.5104 70.375C34.4115 70.4896 34.3281 70.625 34.2708 70.7708C34.2188 70.9167 34.1875 71.0729 34.1875 71.2448C34.1875 71.4115 34.2188 71.5729 34.2708 71.7187C34.3281 71.8698 34.4063 72.0052 34.5104 72.1198C34.6042 72.2292 34.7188 72.3125 34.8438 72.375L34.8542 72.3802C34.974 72.4375 35.1094 72.4687 35.25 72.4687C37.0521 72.4687 39.2031 72.4792 41.3542 72.4844C43.25 72.4948 45.1458 72.5 47.4375 72.5L49.6354 72.6458C49.7292 72.651 49.8177 72.7083 49.8594 72.8021L50.0677 73.2708C50.0885 73.3073 50.099 73.349 50.099 73.3958C50.099 73.4792 50.0885 73.5625 50.0677 73.6406C50.0469 73.7135 50.0156 73.7865 49.974 73.8594C49.8906 74.0208 49.7552 74.2187 49.599 74.4323C49.4479 74.6302 49.2656 74.8594 49.0677 75.0937C48.6823 75.5521 48.2708 76.0156 48.099 76.2083L48.0833 76.2292C47.776 76.5729 47.5781 76.9115 47.4792 77.224C47.3698 77.5625 47.3646 77.8698 47.4375 78.1302C47.4635 78.224 47.5 78.3125 47.5469 78.3906C47.5938 78.474 47.651 78.5469 47.7188 78.6146C47.7813 78.6823 47.8542 78.7344 47.9375 78.7812C48.0156 78.8281 48.1042 78.8646 48.1927 78.8854C48.4688 78.9583 48.8021 78.9271 49.151 78.7604C49.474 78.6042 49.8177 78.3281 50.151 77.9115L50.1667 77.8854L50.2083 77.8385L50.2448 77.7969C50.4219 77.6042 50.6354 77.375 50.8958 77.0937C52.1979 75.6979 54.6354 73.0833 56.0104 71.0729C56.026 71.0521 56.0417 71.0312 56.0625 71.0104C56.2135 70.875 56.375 70.7448 56.5469 70.6354C56.7188 70.526 56.8958 70.4323 57.0885 70.3646C57.25 70.3073 57.4115 70.2604 57.5885 70.2344C57.7552 70.2083 57.9271 70.1979 58.1042 70.2031H62.8958V64.5677V64.5625C62.8958 64.5208 62.901 64.4792 62.9063 64.4375C62.9115 64.4167 62.9167 64.3906 62.9167 64.3698C62.9115 64.3021 62.901 64.2292 62.901 64.151C62.8854 64.0365 62.8854 63.9479 62.8854 63.8646ZM55.1615 36.1354V40.2552H60.5469C61.8177 40.2552 61.8385 40.2969 62.0833 40.7031C62.1823 40.8698 62.3333 41.125 62.8281 41.5365C63.2865 41.9167 63.7969 42.2135 64.349 42.4167C64.8802 42.6146 65.4531 42.7187 66.0417 42.7187H70.6094C70.6458 42.7187 70.6823 42.7187 70.724 42.7135H79.9948C80.1354 42.7135 80.2656 42.6823 80.3906 42.625C80.5208 42.5625 80.6354 42.474 80.7396 42.3646C80.8385 42.25 80.9219 42.1146 80.9792 41.9687C81.0313 41.8229 81.0625 41.6667 81.0625 41.4948C81.0625 41.3281 81.0313 41.1667 80.9792 41.0208C80.9219 40.8698 80.8385 40.7344 80.7396 40.6198C80.6406 40.5104 80.526 40.4219 80.3958 40.3594C80.276 40.3021 80.1406 40.2708 80 40.2708H74.8854H74.8594C74.7135 40.2708 74.5938 40.151 74.5938 40.0052V38.7708C74.5938 38.625 74.7135 38.5052 74.8594 38.5052H82.6979C82.8385 38.5052 82.9688 38.474 83.0938 38.4167C83.2188 38.3594 83.3333 38.276 83.4271 38.1719L83.4375 38.1562C83.5365 38.0417 83.6198 37.9062 83.6771 37.7604C83.7292 37.6146 83.7604 37.4583 83.7604 37.2865C83.7604 37.1198 83.7292 36.9583 83.6771 36.8125C83.6198 36.6615 83.5365 36.526 83.4375 36.4115C83.3385 36.3021 83.224 36.2135 83.0885 36.151C82.9688 36.0937 82.8333 36.0625 82.6927 36.0625H74.8542C74.7083 36.0625 74.5885 35.9427 74.5885 35.7969V34.4896C74.5885 34.3437 74.7083 34.224 74.8542 34.224H85.2188C85.3594 34.224 85.4896 34.1927 85.6146 34.1354C85.7448 34.0729 85.8646 33.9844 85.9635 33.875C86.0625 33.7604 86.1458 33.625 86.2031 33.4792C86.2552 33.3333 86.2865 33.1771 86.2865 33.0052C86.2865 32.8385 86.2552 32.6771 86.2031 32.5312C86.151 32.3854 86.0729 32.2552 85.974 32.1458L85.9635 32.1354C85.8646 32.026 85.7448 31.9375 85.6198 31.875C85.5 31.8177 85.3646 31.7865 85.224 31.7865H74.8594C74.7135 31.7865 74.5938 31.6667 74.5938 31.5208V30.2448C74.5938 30.099 74.7135 29.9792 74.8594 29.9792H82.6719C82.8125 29.9792 82.9427 29.9479 83.0677 29.8906C83.1979 29.8281 83.3177 29.7396 83.4167 29.6302C83.5156 29.5156 83.599 29.3802 83.6563 29.2344C83.7083 29.0885 83.7396 28.9323 83.7396 28.7604C83.7396 28.5937 83.7083 28.4323 83.6563 28.2865C83.599 28.1354 83.5208 28 83.4167 27.8854C83.3177 27.776 83.1979 27.6875 83.0677 27.625C82.9479 27.5677 82.8125 27.5365 82.6719 27.5365C80.8698 27.5365 78.75 27.526 76.6354 27.5208C74.7708 27.5156 72.9063 27.5052 70.6198 27.5052L68.4115 27.375C68.3177 27.3698 68.2292 27.3125 68.1875 27.2188L67.9792 26.75C67.9583 26.7135 67.9479 26.6719 67.9479 26.625C67.9479 26.5417 67.9583 26.4583 67.9792 26.3802C68 26.3073 68.0313 26.2344 68.0729 26.1615C68.1563 26 68.2917 25.8021 68.4479 25.5885C68.599 25.3906 68.7813 25.1615 68.9792 24.9271C69.3594 24.474 69.7708 24.0156 69.9479 23.8177L69.9688 23.7917C70.276 23.4479 70.474 23.1094 70.5729 22.7969C70.6823 22.4583 70.6875 22.151 70.6146 21.8906C70.5885 21.7969 70.5521 21.7083 70.5052 21.6302C70.4583 21.5469 70.401 21.474 70.3333 21.4062C70.2708 21.3385 70.1979 21.2865 70.1146 21.2396C70.0365 21.1875 69.9479 21.151 69.8594 21.125C69.5833 21.0521 69.25 21.0833 68.901 21.25C68.5781 21.4062 68.2344 21.6823 67.901 22.099L67.8854 22.125L67.8438 22.1719L67.7969 22.2188C67.6198 22.4115 67.4063 22.6406 67.1458 22.9219C65.8438 24.3177 63.4063 26.9323 62.0313 28.9427C62.0156 28.9635 62 28.9844 61.9792 29.0052C61.8281 29.1406 61.6667 29.2656 61.4948 29.3802C61.3229 29.4896 61.1458 29.5833 60.9531 29.651C60.7917 29.7083 60.6302 29.7552 60.4531 29.7812C60.2865 29.8073 60.1146 29.8177 59.9375 29.8125H55.1458V35.4479V35.4531C55.1458 35.4948 55.1406 35.5365 55.1354 35.5781C55.1302 35.599 55.125 35.625 55.125 35.6458C55.1302 35.7135 55.1406 35.7865 55.1406 35.8646C55.1563 35.9635 55.1615 36.0521 55.1615 36.1354ZM70.6042 44.4844H67.1094V53.0937C67.1094 54.4375 67.0677 54.4635 66.6667 54.7187C66.5 54.8229 66.2396 54.9896 65.8333 55.5208C65.4531 56.0104 65.1563 56.5625 64.9479 57.1562C64.75 57.7292 64.6458 58.3437 64.6458 58.9792V63.8698C64.6458 63.9115 64.6458 63.9479 64.651 63.9896V73.5417C64.651 73.6927 64.6823 73.8333 64.7344 73.9635L64.7396 73.974C64.8021 74.1146 64.8906 74.2448 65.0052 74.3542C65.1198 74.4635 65.2552 74.5521 65.401 74.6094C65.5417 74.6667 65.7031 74.6979 65.8698 74.6979C66.0365 74.6979 66.1927 74.6667 66.3385 74.6094C66.4896 74.5521 66.625 74.4635 66.7344 74.3542C66.849 74.2448 66.9375 74.1198 67 73.9792C67.0573 73.8437 67.0885 73.6979 67.0885 73.5417V68.4375V68.4115C67.0885 68.2656 67.2083 68.1458 67.3542 68.1458H68.5885C68.7344 68.1458 68.8542 68.2656 68.8542 68.4115V76.4219C68.8542 76.5781 68.8854 76.724 68.9427 76.8594C69 76.9948 69.0885 77.1198 69.1927 77.224L69.2083 77.2344C69.3177 77.3385 69.4479 77.4271 69.5938 77.4844L69.6042 77.4896C69.7448 77.5469 69.9063 77.5781 70.0729 77.5781C70.2396 77.5781 70.3958 77.5469 70.5417 77.4896C70.6927 77.4323 70.8229 77.3437 70.9375 77.2344C71.0521 77.125 71.1406 77 71.2031 76.8594C71.2604 76.724 71.2917 76.5781 71.2917 76.4219V68.4115C71.2917 68.2656 71.4115 68.1458 71.5573 68.1458H72.8646C73.0104 68.1458 73.1302 68.2656 73.1302 68.4115V79.1302C73.1302 79.2865 73.1615 79.4323 73.2188 79.5677C73.2813 79.7083 73.3698 79.8385 73.4844 79.9427C73.599 80.0521 73.7344 80.1406 73.8802 80.1979C74.0208 80.2552 74.1823 80.2865 74.349 80.2865C74.5104 80.2865 74.6667 80.2552 74.8021 80.2031L74.8125 80.1979C74.9635 80.1406 75.099 80.0521 75.2083 79.9427C75.3229 79.8333 75.4115 79.7083 75.474 79.5677C75.5313 79.4323 75.5625 79.2865 75.5625 79.1302V68.4115C75.5625 68.2656 75.6823 68.1458 75.8281 68.1458H77.1042C77.25 68.1458 77.3698 68.2656 77.3698 68.4115V76.3958C77.3698 76.5521 77.401 76.6979 77.4583 76.8333C77.5208 76.974 77.6094 77.1042 77.724 77.2135C77.8385 77.3229 77.9688 77.4115 78.1198 77.4687C78.2604 77.526 78.4219 77.5573 78.5885 77.5573C78.7552 77.5573 78.9115 77.526 79.0573 77.4687C79.2083 77.4115 79.3385 77.3229 79.4531 77.2135C79.5677 77.1042 79.6563 76.9792 79.7188 76.8333C79.776 76.6979 79.8073 76.5521 79.8073 76.3958C79.8073 74.4583 79.8177 72.2865 79.8229 70.1198C79.8333 68.2083 79.8385 66.3021 79.8385 63.8646L79.9844 61.5104C79.9896 61.4167 80.0469 61.3281 80.1354 61.2865L80.6042 61.0677C80.6458 61.0469 80.6875 61.0312 80.7396 61.0312C80.8229 61.0312 80.9063 61.0417 80.9896 61.0677C81.0729 61.0937 81.151 61.125 81.2188 61.1719C81.375 61.2604 81.5729 61.401 81.7813 61.5677C82 61.7448 82.224 61.9375 82.4427 62.1302C82.9063 62.5469 83.3906 63.0104 83.5729 63.1875C83.9167 63.5156 84.2552 63.724 84.5677 63.8385C84.901 63.9583 85.2083 63.9635 85.4635 63.8854C85.5521 63.8594 85.6406 63.8177 85.724 63.7656C85.8073 63.7135 85.8802 63.651 85.9479 63.5833C86.0156 63.5156 86.0729 63.4323 86.1198 63.349C86.1667 63.2604 86.2031 63.1667 86.2292 63.0677C86.3073 62.7604 86.276 62.401 86.099 62.0156C85.9375 61.6615 85.6615 61.2969 85.2396 60.9323L85.2188 60.9167L85.1719 60.875L85.1406 60.8437C84.9688 60.6771 84.7292 60.4375 84.4323 60.1406C83.0365 58.7448 80.4219 56.1354 78.4115 54.6615C78.3906 54.6458 78.3698 54.6302 78.349 54.6094C78.2135 54.4479 78.0885 54.276 77.9792 54.0938C77.8698 53.9115 77.7813 53.7187 77.7083 53.5208C77.651 53.349 77.6042 53.1771 77.5781 52.9948C77.5521 52.8229 77.5417 52.6406 77.5469 52.4479V44.474H71.2396H71.2344C71.1927 44.474 71.151 44.4687 71.1094 44.4635C71.0885 44.4583 71.0677 44.4583 71.0521 44.4531C70.9896 44.4583 70.9271 44.4635 70.8594 44.4687H70.8542C70.7708 44.4792 70.6875 44.4844 70.6042 44.4844Z" fill="white"/>
</g>
</g>
<defs>
<filter id="filter0_d_1_48" x="0" y="0" width="109" height="108" filterUnits="userSpaceOnUse" color-interpolation-filters="sRGB">
<feFlood flood-opacity="0" result="BackgroundImageFix"/>
<feColorMatrix in="SourceAlpha" type="matrix" values="0 0 0 0 0 0 0 0 0 0 0 0 0 0 0 0 0 0 127 0" result="hardAlpha"/>
<feOffset dx="-5" dy="4"/>
<feGaussianBlur stdDeviation="2"/>
<feComposite in2="hardAlpha" operator="out"/>
<feColorMatrix type="matrix" values="0 0 0 0 0 0 0 0 0 0.290196 0 0 0 0 0.678431 0 0 0 0.4 0"/>
<feBlend mode="normal" in2="BackgroundImageFix" result="effect1_dropShadow_1_48"/>
<feBlend mode="normal" in="SourceGraphic" in2="effect1_dropShadow_1_48" result="shape"/>
</filter>
<clipPath id="clip0_1_48">
<rect width="58.0417" height="64" fill="white" transform="translate(30 18)"/>
</clipPath>
</defs>
</svg>
