<svg width="109" height="108" viewBox="0 0 109 108" fill="none" xmlns="http://www.w3.org/2000/svg">
<g filter="url(#filter0_d_0_359)">
<circle cx="59" cy="50" r="50" fill="white"/>
<g clip-path="url(#clip0_0_359)">
<path fill-rule="evenodd" clip-rule="evenodd" d="M49.4792 18H72.4635C74.2971 18.0014 76.055 18.7307 77.351 20.0277C78.647 21.3247 79.375 23.0832 79.375 24.9167V38.7552H76.9844V24.849H44.9479V27.1927H42.5625V24.9063C42.5618 23.9983 42.7403 23.099 43.0878 22.2601C43.4353 21.4212 43.9449 20.6592 44.5874 20.0176C45.23 19.376 45.9928 18.8675 46.8323 18.5213C47.6717 18.1751 48.5712 17.998 49.4792 18ZM41.7292 38.875L46.4792 42.1875C46.5651 42.2397 46.6396 42.3088 46.6979 42.3906C46.7513 42.4674 46.789 42.5541 46.8088 42.6455C46.8285 42.737 46.83 42.8314 46.813 42.9234C46.7961 43.0154 46.7611 43.1032 46.71 43.1816C46.659 43.26 46.5929 43.3275 46.5156 43.3802L41.776 46.6458C41.6471 46.7479 41.4873 46.803 41.3229 46.8021C41.1398 46.8023 40.9636 46.7322 40.8308 46.6062C40.698 46.4801 40.6187 46.3079 40.6094 46.125V39.4531C40.6138 39.3074 40.6609 39.1661 40.7448 39.0469C40.8528 38.8939 41.017 38.79 41.2015 38.7578C41.386 38.7256 41.5757 38.7677 41.7292 38.875ZM33.6042 31.3698H53.8594C54.5426 31.3727 55.1972 31.6439 55.6823 32.125L55.7292 32.1771C56.1875 32.6547 56.4432 33.2912 56.4427 33.9531V48.6458C56.4427 49.3365 56.1683 49.9989 55.68 50.4873C55.1916 50.9757 54.5292 51.25 53.8385 51.25H33.6042C32.9135 51.25 32.2511 50.9757 31.7627 50.4873C31.2744 49.9989 31 49.3365 31 48.6458V33.9531C31 33.2625 31.2744 32.6001 31.7627 32.1117C32.2511 31.6233 32.9135 31.349 33.6042 31.349V31.3698ZM55.0729 35.75H32.3854V48.6458C32.3861 48.805 32.4182 48.9624 32.4799 49.1091C32.5416 49.2558 32.6316 49.3888 32.7448 49.5006C32.8581 49.6124 32.9923 49.7007 33.1398 49.7605C33.2872 49.8203 33.445 49.8503 33.6042 49.849H53.8594C54.0173 49.8497 54.1738 49.819 54.3198 49.7587C54.4658 49.6984 54.5984 49.6097 54.7098 49.4978C54.8213 49.3859 54.9094 49.2529 54.969 49.1067C55.0287 48.9604 55.0587 48.8038 55.0573 48.6458V35.75H55.0729ZM74.3438 63.3542L69.349 68.1406C69.2759 68.2248 69.1854 68.2922 69.0838 68.338C68.9822 68.3839 68.8719 68.4072 68.7604 68.4063C68.5514 68.4035 68.3519 68.3182 68.2055 68.1689C68.0591 68.0196 67.9778 67.8185 67.9792 67.6094V63.349H65.3333C64.795 63.3476 64.2788 63.1342 63.8966 62.755C63.5145 62.3758 63.2971 61.8613 63.2917 61.3229V45.7813C63.2971 45.2456 63.5123 44.7334 63.8911 44.3546C64.2699 43.9758 64.7821 43.7607 65.3177 43.7552H85.7031C85.9723 43.7511 86.2396 43.8004 86.4896 43.9002C86.7397 44 86.9674 44.1485 87.1597 44.3369C87.352 44.5253 87.505 44.7499 87.6099 44.9979C87.7148 45.2458 87.7695 45.5121 87.7708 45.7813V61.3229C87.7681 61.8594 87.5538 62.3732 87.1744 62.7525C86.795 63.1319 86.2813 63.3462 85.7448 63.349L74.3438 63.3542ZM69.0729 57.1042C68.7966 57.1042 68.5317 56.9944 68.3363 56.7991C68.141 56.6037 68.0313 56.3388 68.0313 56.0625C68.0313 55.7862 68.141 55.5213 68.3363 55.3259C68.5317 55.1306 68.7966 55.0208 69.0729 55.0208H80.0104C80.2867 55.0208 80.5516 55.1306 80.747 55.3259C80.9423 55.5213 81.0521 55.7862 81.0521 56.0625C81.0521 56.3388 80.9423 56.6037 80.747 56.7991C80.5516 56.9944 80.2867 57.1042 80.0104 57.1042H69.0729ZM69.0729 51.5677C68.7966 51.5677 68.5317 51.458 68.3363 51.2626C68.141 51.0673 68.0313 50.8023 68.0313 50.5261C68.0313 50.2498 68.141 49.9848 68.3363 49.7895C68.5317 49.5941 68.7966 49.4844 69.0729 49.4844H82.474C82.7502 49.4844 83.0152 49.5941 83.2105 49.7895C83.4059 49.9848 83.5156 50.2498 83.5156 50.5261C83.5156 50.8023 83.4059 51.0673 83.2105 51.2626C83.0152 51.458 82.7502 51.5677 82.474 51.5677H69.0729ZM79.3698 67.7136V75.0833C79.3698 76.9169 78.6418 78.6754 77.3458 79.9723C76.0498 81.2693 74.2918 81.9986 72.4583 82H49.4792C47.6448 82 45.8855 81.2713 44.5883 79.9742C43.2912 78.677 42.5625 76.9178 42.5625 75.0833V55.4115H44.9479V72.3958H76.9844V67.7083L79.3698 67.7136ZM60.9583 74.5625C61.521 74.5625 62.071 74.7294 62.5388 75.0421C63.0065 75.3548 63.371 75.7993 63.5861 76.3192C63.8012 76.8391 63.8572 77.4112 63.7471 77.963C63.6369 78.5147 63.3656 79.0214 62.9673 79.4189C62.5691 79.8164 62.0619 80.0869 61.5099 80.196C60.9579 80.3051 60.386 80.2481 59.8665 80.0321C59.3469 79.816 58.9032 79.4507 58.5913 78.9824C58.2795 78.514 58.1136 77.9637 58.1146 77.4011C58.1139 77.0277 58.187 76.6578 58.3298 76.3128C58.4725 75.9677 58.682 75.6543 58.9463 75.3905C59.2106 75.1267 59.5244 74.9178 59.8697 74.7757C60.215 74.6336 60.5849 74.5611 60.9583 74.5625Z" fill="#004AAD"/>
</g>
</g>
<defs>
<filter id="filter0_d_0_359" x="0" y="0" width="109" height="108" filterUnits="userSpaceOnUse" color-interpolation-filters="sRGB">
<feFlood flood-opacity="0" result="BackgroundImageFix"/>
<feColorMatrix in="SourceAlpha" type="matrix" values="0 0 0 0 0 0 0 0 0 0 0 0 0 0 0 0 0 0 127 0" result="hardAlpha"/>
<feOffset dx="-5" dy="4"/>
<feGaussianBlur stdDeviation="2"/>
<feComposite in2="hardAlpha" operator="out"/>
<feColorMatrix type="matrix" values="0 0 0 0 0 0 0 0 0 0.290196 0 0 0 0 0.678431 0 0 0 0.4 0"/>
<feBlend mode="normal" in2="BackgroundImageFix" result="effect1_dropShadow_0_359"/>
<feBlend mode="normal" in="SourceGraphic" in2="effect1_dropShadow_0_359" result="shape"/>
</filter>
<clipPath id="clip0_0_359">
<rect width="56.7448" height="64" fill="white" transform="translate(31 18)"/>
</clipPath>
</defs>
</svg>
