<svg width="109" height="108" viewBox="0 0 109 108" fill="none" xmlns="http://www.w3.org/2000/svg">
<g filter="url(#filter0_d_1_98)">
<circle cx="59" cy="50" r="50" fill="#004AAD"/>
<g clip-path="url(#clip0_1_98)">
<path d="M56.125 21.3229C55.375 21.4115 54.6354 21.526 53.9062 21.6719C52.0817 22.0359 50.2997 22.5875 48.5885 23.3177C46.8957 24.0352 45.2726 24.9069 43.7396 25.9219C42.241 26.924 40.8453 28.0719 39.5729 29.349C38.2959 30.6214 37.1479 32.0171 36.1458 33.5156C35.1308 35.0486 34.2591 36.6718 33.5417 38.3646L33.5104 38.4375C33.085 39.4386 32.7215 40.4648 32.4219 41.5104C31.75 41.3177 31.125 41.099 30.4896 40.8698C30.1578 40.7104 29.8081 40.5915 29.4479 40.5156C29.7732 39.3996 30.1645 38.3039 30.6198 37.2344L30.651 37.151C31.4573 35.2814 32.4354 33.4907 33.5729 31.8021C35.8156 28.4691 38.6827 25.6021 42.0156 23.3594C43.7049 22.2273 45.4955 21.2544 47.3646 20.4531C49.2754 19.638 51.265 19.0219 53.3021 18.6146C57.4618 17.7952 61.7414 17.7952 65.901 18.6146C67.9066 19.0184 69.8662 19.6239 71.75 20.4219L71.8333 20.4531C73.7024 21.2544 75.493 22.2273 77.1823 23.3594C80.5209 25.6005 83.3933 28.4677 85.6406 31.8021C86.7727 33.4913 87.7456 35.282 88.5469 37.151C89.3621 39.0605 89.9799 41.0482 90.3906 43.0833C91.2032 47.2454 91.2032 51.5254 90.3906 55.6875C89.9881 57.6957 89.3808 59.6574 88.5781 61.5417L88.5469 61.625C87.7456 63.494 86.7727 65.2847 85.6406 66.974C83.3979 70.3069 80.5309 73.1739 77.1979 75.4167C75.5086 76.5488 73.718 77.5217 71.849 78.3229C70.0357 79.0951 68.1519 79.6899 66.224 80.099C66.1042 79.6406 65.9531 79.1615 65.7812 78.6406C65.5729 78.0052 65.401 77.5208 65.2604 77.1146H65.3229C67.1476 76.7513 68.9297 76.1997 70.6406 75.4688C72.3334 74.7513 73.9566 73.8796 75.4896 72.8646C76.9881 71.8625 78.3838 70.7145 79.6562 69.4375C80.9333 68.1651 82.0812 66.7694 83.0833 65.2708C84.0983 63.7378 84.97 62.1147 85.6875 60.4219L85.7187 60.349C86.4339 58.6602 86.9749 56.9028 87.3333 55.1042C87.7107 53.2249 87.8992 51.3126 87.8958 49.3958C87.8986 47.9754 87.7977 46.5567 87.5937 45.151C86.9635 46.4219 86.776 49.9375 86.776 50.6979L85.2135 51.1771H84.9792L83.6667 47.1667L82.651 43.9583L79.2135 50.1406L78.0729 50.8594L76.8854 44.1927L74.625 42.5885L68.2083 41.4635C69.7031 45.3281 74.901 48.6042 66.6458 50.3177C67.3073 52.3073 71.1823 50.6042 67.5104 55.4063C66.3403 56.934 65.4201 58.2118 64.75 59.2396L65.3385 63.526C65.401 64 65.0833 64.4896 64.3333 64.9844L64.2865 65.0156C62.8958 52.0104 54.1146 47.7292 44.25 44.8177C44.6144 43.5671 45.412 42.487 46.5 41.7708C48.875 38.349 50.625 37.4271 54.4687 37.4271V39.7396L57.7344 41.1719L58.0417 39.7396C58.6521 39.8551 59.2374 40.0773 59.7708 40.3958C60.6927 40.9896 63.2656 41.2031 63.5156 39.7656C63.6298 39.1139 63.6856 38.4533 63.6823 37.7917L61.0781 38.026C59.875 35.5104 56.8542 35.8073 53.5208 32.3177C42.2448 36.3698 48.5208 33.625 48.5208 30.0052L53.3437 27.8021C52.9115 23.9948 52.8646 27.5104 52.1562 24.0573C53.2509 23.4361 54.2957 22.7309 55.2812 21.9479C55.5885 21.7083 55.8802 21.5 56.1458 21.3229H56.125ZM66.0208 21.8229C65.7917 21.7656 65.5573 21.7187 65.3229 21.6719C64.4531 21.5 63.5625 21.3646 62.6615 21.2708C63.6954 21.8035 64.8708 21.9966 66.0208 21.8229Z" fill="white"/>
<path d="M34.8073 65.25C33.9114 63.926 33.1423 62.5205 32.5104 61.0521C31.8561 59.566 31.3332 58.0253 30.9479 56.4479L36.1875 58.9531C36.276 61.3594 34.9062 62.776 34.7865 65.25H34.8073Z" stroke="white" stroke-width="3.74" stroke-linecap="round" stroke-linejoin="round"/>
<path d="M34.8073 65.25C33.9114 63.926 33.1423 62.5205 32.5104 61.0521C31.8561 59.566 31.3332 58.0253 30.9479 56.4479L36.1875 58.9531C36.276 61.3594 34.9062 62.776 34.7865 65.25H34.8073Z" fill="white"/>
<path fill-rule="evenodd" clip-rule="evenodd" d="M59.25 76.0469C60.724 78.1615 60.8125 78.0573 61.4844 80.0469C62.1563 82.0365 62.3802 82.875 60.8542 80.8333C59.4271 78.9271 59.2917 78.9427 57.2969 77.1875L56.8333 77.2708C38.3385 80.2761 25.2396 71.5573 28.5208 44.9323C42.4792 50.2917 62.5833 49 59.6562 74.0313C59.6221 74.7201 59.4833 75.3998 59.2448 76.0469H59.25ZM54.4583 71.8802C50.1719 61.75 38.4167 57.9531 32.776 50.9531C38.7448 63.625 42.2448 63.1927 54.4531 71.8646L54.4583 71.8802Z" fill="white"/>
</g>
</g>
<defs>
<filter id="filter0_d_1_98" x="0" y="0" width="109" height="108" filterUnits="userSpaceOnUse" color-interpolation-filters="sRGB">
<feFlood flood-opacity="0" result="BackgroundImageFix"/>
<feColorMatrix in="SourceAlpha" type="matrix" values="0 0 0 0 0 0 0 0 0 0 0 0 0 0 0 0 0 0 127 0" result="hardAlpha"/>
<feOffset dx="-5" dy="4"/>
<feGaussianBlur stdDeviation="2"/>
<feComposite in2="hardAlpha" operator="out"/>
<feColorMatrix type="matrix" values="0 0 0 0 0 0 0 0 0 0.290196 0 0 0 0 0.678431 0 0 0 0.4 0"/>
<feBlend mode="normal" in2="BackgroundImageFix" result="effect1_dropShadow_1_98"/>
<feBlend mode="normal" in="SourceGraphic" in2="effect1_dropShadow_1_98" result="shape"/>
</filter>
<clipPath id="clip0_1_98">
<rect width="63" height="64" fill="white" transform="translate(28 18)"/>
</clipPath>
</defs>
</svg>
