<svg width="109" height="108" viewBox="0 0 109 108" fill="none" xmlns="http://www.w3.org/2000/svg">
<g filter="url(#filter0_d_1_17)">
<circle cx="59" cy="50" r="50" fill="#004AAD"/>
<g clip-path="url(#clip0_1_17)">
<path fill-rule="evenodd" clip-rule="evenodd" d="M58.9284 18L62.654 21.0223L67.3933 20.262L69.0977 24.7478L73.5836 26.4522L72.8233 31.1916L75.8456 34.9171L72.8233 38.6427L73.5836 43.382L69.0977 45.0864L67.3933 49.5723L62.654 48.812L58.9284 51.8343L55.2028 48.812L50.4635 49.5723L48.7591 45.0864L44.2732 43.382L45.0336 38.6427L42.0113 34.9171L45.0336 31.1916L44.2732 26.4522L48.7591 24.7478L50.4635 20.262L55.2028 21.0223L58.9284 18ZM62.0774 71.7167H75.9596C77.0747 70.6079 78.2976 69.4547 79.5331 68.2825C82.1372 65.8178 84.8554 63.2454 87.6495 60.0267C90.8429 56.3455 91.185 55.072 92.1544 51.4668C92.3382 50.7888 92.5409 50.0285 92.807 49.0844L94.4671 43.249L94.4861 43.1856C95.3731 40.5879 95.4428 38.8708 95.0753 37.8824C94.9613 37.5783 94.8156 37.3755 94.6445 37.2678C94.5114 37.1791 94.334 37.1474 94.1503 37.1664C93.7194 37.2108 93.2316 37.4832 92.788 37.9711L87.8586 49.7117C87.8143 49.8194 87.7509 49.9208 87.6812 50.0095C87.3898 50.5354 86.9969 51.0486 86.49 51.5365L77.7464 61.2876C77.2712 61.8198 76.4538 61.8642 75.9279 61.389C75.3957 60.9138 75.3513 60.0964 75.8265 59.5705C77.0114 58.2526 86.1986 49.2365 85.7297 47.2153C85.1468 44.7253 78.8868 51.1183 78.1392 51.7773L78.1202 51.7963C74.4516 55.2684 72.874 56.0921 69.9974 57.5937C69.3955 57.9105 68.7366 58.2527 67.9192 58.6962C67.5961 58.8736 67.2793 59.089 66.9688 59.3234C66.6393 59.5769 66.3225 59.8367 66.0247 60.0901C64.5041 61.37 63.7058 62.4091 63.2496 63.5559C62.7744 64.7471 62.6033 66.198 62.3689 68.1875C62.2738 68.9858 62.2041 69.7842 62.1471 70.5762C62.1154 70.9627 62.0964 71.3428 62.0774 71.7167ZM55.7794 71.7167H41.8909C40.7758 70.6079 39.5529 69.4547 38.3111 68.2825C35.707 65.8178 32.9888 63.2454 30.1946 60.0267C27.0013 56.3455 26.6591 55.072 25.6897 51.4668C25.506 50.7888 25.3032 50.0285 25.0371 49.0844L23.3771 43.249L23.3581 43.1856C22.471 40.5879 22.4013 38.8708 22.7688 37.8824C22.8829 37.5783 23.0286 37.3755 23.1997 37.2678C23.3327 37.1791 23.5101 37.1474 23.6939 37.1664C24.1247 37.2108 24.6126 37.4832 25.0561 37.9711L29.9855 49.7117C30.0299 49.8194 30.0933 49.9208 30.163 50.0095C30.4544 50.5354 30.8472 51.0486 31.3541 51.5365L40.0978 61.2876C40.573 61.8198 41.3904 61.8642 41.9162 61.389C42.4485 60.9138 42.4928 60.0964 42.0176 59.5705C40.8455 58.2463 31.6582 49.2302 32.1271 47.209C32.71 44.7189 38.97 51.112 39.7176 51.7709L39.7367 51.7899C43.4052 55.2621 44.9829 56.0857 47.8594 57.5874C48.4613 57.9042 49.1203 58.2463 49.9376 58.6898C50.2608 58.8672 50.5776 59.0827 50.888 59.3171C51.2175 59.5705 51.5343 59.8303 51.8321 60.0838C53.3527 61.3636 54.1511 62.4027 54.6073 63.5496C55.0825 64.7407 55.2535 66.1917 55.488 68.1812C55.583 68.9795 55.6527 69.7778 55.7097 70.5698C55.7414 70.9627 55.7604 71.3428 55.7794 71.7167ZM38.6595 72.1602C38.4631 72.3883 38.3427 72.6861 38.3427 73.0092V80.7011C38.3427 81.4171 38.9256 81.9937 39.6353 81.9937H57.11C57.826 81.9937 58.4025 81.4108 58.4025 80.7011V72.9395C58.4025 72.1158 58.3518 71.2288 58.2948 70.4051C58.2378 69.5624 58.1618 68.7261 58.0667 67.8961C57.8133 65.7228 57.6232 64.1325 57.0149 62.6055C56.3877 61.0405 55.3803 59.6909 53.5111 58.1133C53.169 57.8218 52.8205 57.5303 52.453 57.2579C52.0665 56.9664 51.6483 56.6877 51.1795 56.4279C50.4192 56.016 49.7095 55.6422 49.0633 55.3001C46.4021 53.9061 44.9449 53.1458 41.5171 49.9018C41.4917 49.8764 41.4601 49.8511 41.4347 49.8321L38.1273 46.9112C36.4546 44.9534 33.1409 42.6217 30.7269 44.7379C29.4406 41.6777 28.1734 35.0058 23.9663 34.594C23.1997 34.518 22.4584 34.6827 21.8121 35.1009C21.1975 35.5 20.6906 36.121 20.3738 36.9763C19.8163 38.4653 19.8289 40.7779 20.9187 43.9776L22.5661 49.7751C22.8068 50.6114 23.0159 51.4161 23.2124 52.1257C24.2895 56.1491 24.6696 57.5747 28.2621 61.7058C31.107 64.9815 33.8949 67.6173 36.5623 70.1453C37.2529 70.817 37.9499 71.4822 38.6595 72.1602ZM41.1306 74.3018C41.3016 74.3398 41.4791 74.3398 41.6565 74.3018H55.8111V79.4086H40.9278V74.3018H41.1306ZM79.1973 72.1602C79.3937 72.3883 79.5141 72.6861 79.5141 73.0092V80.7011C79.5141 81.4171 78.9375 81.9937 78.2216 81.9937H60.7532C60.0372 81.9937 59.4606 81.4108 59.4606 80.7011V72.9395C59.4606 72.8952 59.4606 72.8445 59.467 72.8001C59.486 71.9701 59.5177 71.1654 59.5684 70.4051C59.6254 69.5624 59.7014 68.7261 59.7965 67.8961C60.0499 65.7228 60.24 64.1325 60.8482 62.6055C61.4755 61.0405 62.4829 59.6909 64.352 58.1133C64.6942 57.8218 65.0427 57.5303 65.4102 57.2579C65.7966 56.9664 66.2148 56.6877 66.6837 56.4279C67.444 56.016 68.1536 55.6422 68.7999 55.3001C71.461 53.9061 72.9183 53.1458 76.3461 49.9018C76.3714 49.8764 76.4031 49.8511 76.4285 49.8321L79.7359 46.9112C81.4086 44.9534 84.7223 42.6217 87.1363 44.7379C87.7636 43.2363 89.9305 37.3565 90.6781 36.4568C91.6032 35.348 92.7754 34.7017 93.8968 34.5877C94.6635 34.5116 95.4048 34.6764 96.0511 35.0945C96.6657 35.4937 97.1726 36.1146 97.4894 36.97C98.0469 38.459 98.0342 40.7716 96.9445 43.9713L95.2971 49.7687C95.0563 50.6051 94.8472 51.4098 94.6508 52.1194C93.5737 56.1428 93.1935 57.5684 89.601 61.6994C86.7562 64.9752 83.9747 67.6109 81.3009 70.139C80.6039 70.817 79.9069 71.4822 79.1973 72.1602ZM76.7263 74.3018C76.5552 74.3398 76.3778 74.3398 76.2004 74.3018H62.0457V79.4086H76.929V74.3018H76.7263ZM58.9284 28.8853L60.6708 33.1431L65.2644 33.4852L61.7543 36.4568L62.8504 40.93L58.9348 38.5033L55.0191 40.93L56.1152 36.4631L52.5924 33.4915L57.186 33.1494L58.9284 28.8916V28.8853ZM58.9284 25.3561C64.2063 25.3561 68.4831 29.6392 68.4831 34.9108C68.4831 40.1887 64.2 44.4655 58.9284 44.4655C53.6505 44.4655 49.3737 40.1824 49.3737 34.9108C49.3737 29.6392 53.6505 25.3561 58.9284 25.3561Z" fill="white"/>
</g>
</g>
<defs>
<filter id="filter0_d_1_17" x="0" y="0" width="109" height="108" filterUnits="userSpaceOnUse" color-interpolation-filters="sRGB">
<feFlood flood-opacity="0" result="BackgroundImageFix"/>
<feColorMatrix in="SourceAlpha" type="matrix" values="0 0 0 0 0 0 0 0 0 0 0 0 0 0 0 0 0 0 127 0" result="hardAlpha"/>
<feOffset dx="-5" dy="4"/>
<feGaussianBlur stdDeviation="2"/>
<feComposite in2="hardAlpha" operator="out"/>
<feColorMatrix type="matrix" values="0 0 0 0 0 0 0 0 0 0.290196 0 0 0 0 0.678431 0 0 0 0.4 0"/>
<feBlend mode="normal" in2="BackgroundImageFix" result="effect1_dropShadow_1_17"/>
<feBlend mode="normal" in="SourceGraphic" in2="effect1_dropShadow_1_17" result="shape"/>
</filter>
<clipPath id="clip0_1_17">
<rect width="77.8568" height="64" fill="white" transform="translate(20 18)"/>
</clipPath>
</defs>
</svg>
