<svg width="57" height="56" viewBox="0 0 57 56" fill="none" xmlns="http://www.w3.org/2000/svg">
<g filter="url(#filter0_d_7_35)">
<circle cx="33" cy="24" r="24" fill="#004AAD"/>
<g clip-path="url(#clip0_7_35)">
<path d="M19.3285 24.3665C20.0173 24.9805 20.7055 25.561 21.395 26.1075C22.305 24.7255 23.2965 23.4583 24.3743 22.313C24.1708 21.9298 24.0558 21.492 24.0558 21.0283C24.0558 20.7993 24.0835 20.577 24.1368 20.3638C23.0108 19.6343 21.852 18.8208 20.6455 17.9143C19.7533 19.7543 19.2538 21.8185 19.2538 23.9995H19.2568V24.0003H19.2535C19.2535 24.1483 19.2565 24.2958 19.261 24.4425L19.3285 24.3665ZM21.3115 16.6978C22.5193 17.6088 23.675 18.4253 24.796 19.1555C25.296 18.622 26.0075 18.2888 26.7958 18.2888C27.421 18.2888 27.997 18.4985 28.4583 18.8513C28.7883 18.6325 29.125 18.4215 29.4675 18.2203C30.8945 17.3813 32.4258 16.697 34.07 16.176C34.058 16.067 34.0525 15.9565 34.0525 15.8455C34.0525 15.427 34.1363 15.028 34.2888 14.6653C32.6185 13.25 30.6405 11.9968 28.3638 10.8895C26.464 11.597 24.7598 12.7055 23.3528 14.1125C22.5758 14.8888 21.8898 15.7568 21.3115 16.6978ZM30.281 10.3283C32.0815 11.2973 33.6878 12.3658 35.0938 13.545C35.5638 13.133 36.1613 12.862 36.8188 12.7995C36.9663 12.0773 37.1055 11.343 37.2378 10.5948C35.9708 10.217 34.6293 10.013 33.2405 10.013V10.016H33.2393V10.013C32.2243 10.013 31.235 10.1225 30.281 10.3283ZM38.55 11.0598C38.4338 11.7095 38.312 12.3495 38.1845 12.9793C39.1013 13.3233 39.8093 14.0943 40.066 15.0503C41.307 14.959 42.5978 14.9413 43.942 15.0003C43.683 14.693 43.412 14.396 43.128 14.1118C41.8285 12.813 40.2758 11.769 38.55 11.0598ZM45.0063 16.441C43.2885 16.3123 41.6595 16.309 40.1158 16.4253C39.9893 17.0858 39.6498 17.6708 39.1725 18.1063C39.5785 18.732 39.9465 19.3805 40.2753 20.0525C40.7543 21.0328 41.1488 22.0623 41.46 23.141C41.5548 23.1313 41.651 23.1258 41.749 23.1258C42.9788 23.1258 44.0195 23.9358 44.366 25.0528C45.2725 25.0845 46.2098 25.1013 47.1828 25.1073C47.2115 24.7415 47.227 24.3728 47.227 24.0005H47.224V23.9998V23.9993H47.227C47.2263 21.2155 46.411 18.6213 45.0063 16.441ZM47.007 26.4763C46.1208 26.47 45.2635 26.4545 44.4313 26.427C44.209 27.4945 43.3648 28.3348 42.2945 28.5513C42.3415 29.8305 42.2975 31.168 42.159 32.5645C42.9438 32.4818 43.7395 32.3678 44.5493 32.2245C45.77 30.55 46.6275 28.5958 47.007 26.4763ZM45.339 33.461L45.342 33.4753L45.3255 33.4783C44.9453 33.9635 44.5365 34.425 44.1005 34.861C41.3233 37.6383 37.4833 39.3565 33.241 39.357V39.36H33.2405H33.2398V39.357C28.9975 39.357 25.1578 37.6383 22.3793 34.8603C19.6018 32.0825 17.8833 28.2425 17.8828 24.0003H17.88V23.9995H17.8828C17.8828 19.7568 19.6018 15.917 22.3798 13.139C25.1578 10.361 28.9968 8.64276 33.2393 8.64276V8.64001H33.2405V8.64276C37.4833 8.64276 41.323 10.3613 44.1008 13.1398C46.8788 15.917 48.597 19.7568 48.597 23.9993H48.6V23.9998V24.0005H48.597C48.597 27.5703 47.38 30.8543 45.339 33.461ZM43.1898 33.8238C42.7878 33.8773 42.3893 33.9235 41.9935 33.9618C41.9443 34.3155 41.8888 34.6728 41.8285 35.0343C42.285 34.6788 42.7193 34.2963 43.128 33.8875L43.1898 33.8238ZM40.235 36.1105C40.375 35.4143 40.494 34.7328 40.5923 34.0655C38.087 34.1958 35.6928 34.015 33.3758 33.5258C32.9228 34.063 32.2455 34.4058 31.488 34.4058C31.4318 34.4058 31.3763 34.4035 31.3218 34.4003C30.8845 35.5155 30.4613 36.6005 30.0733 37.6253C31.0908 37.861 32.1513 37.9865 33.2395 37.9865V37.9835H33.2403H33.2408V37.9865C35.788 37.9865 38.177 37.3033 40.235 36.1105ZM28.7508 37.249C29.1755 36.12 29.5995 35.03 30.0303 33.9295C29.4878 33.5323 29.1135 32.9183 29.0348 32.2148C26.5495 31.23 24.14 29.8638 21.7578 28.1138C21.3758 28.7573 21.01 29.4243 20.6595 30.115C21.3443 31.5198 22.2588 32.7943 23.3525 33.888C24.8548 35.3898 26.6958 36.552 28.7508 37.249ZM19.9815 28.462C20.202 28.0595 20.4283 27.665 20.66 27.2783C20.2525 26.9575 19.8453 26.6253 19.4388 26.2823C19.562 27.03 19.7445 27.7593 19.9815 28.462ZM29.3075 19.9333C29.4543 20.2688 29.536 20.639 29.536 21.0285C29.536 21.2905 29.4988 21.5443 29.43 21.7843C30.9353 22.5043 32.4148 23.0758 33.9143 23.527C34.4593 21.8953 34.983 20.2008 35.4708 18.428C35.0875 18.184 34.7625 17.8575 34.5205 17.4733C32.9593 17.9643 31.509 18.61 30.1608 19.4025C29.8723 19.572 29.587 19.7495 29.3075 19.9333ZM28.7275 22.9713C28.2323 23.4645 27.5495 23.769 26.7955 23.769C26.245 23.769 25.732 23.6063 25.302 23.3273C24.2845 24.417 23.348 25.625 22.4855 26.943C24.7193 28.594 26.9693 29.8905 29.2783 30.8343C29.6838 30.0253 30.521 29.4695 31.4875 29.4695C31.5805 29.4695 31.6718 29.4748 31.7625 29.485C32.3368 27.9845 32.9123 26.4375 33.4708 24.8278C31.8825 24.3478 30.3178 23.739 28.7275 22.9713ZM37.9718 18.783C37.699 18.8623 37.4105 18.9048 37.1118 18.9048C36.9963 18.9048 36.8818 18.899 36.7695 18.886C36.2888 20.6265 35.775 22.291 35.2405 23.8935C36.553 24.2253 37.892 24.4735 39.2893 24.6563C39.4925 24.244 39.796 23.8908 40.1688 23.6278C39.875 22.5858 39.498 21.5953 39.0388 20.6553C38.7223 20.008 38.3663 19.3848 37.9718 18.783ZM40.9165 28.4768C39.8523 28.138 39.07 27.1668 39.0123 26.0045C37.5603 25.8113 36.1658 25.5493 34.7973 25.1988C34.22 26.8643 33.6253 28.4638 33.0318 30.013C33.5948 30.4655 33.9553 31.16 33.9553 31.9378C33.9553 32.0403 33.9485 32.141 33.9365 32.2405C36.1255 32.6758 38.3918 32.8228 40.7673 32.6798C40.9238 31.208 40.9725 29.8078 40.9165 28.4768Z" fill="#08EC65"/>
</g>
</g>
<defs>
<filter id="filter0_d_7_35" x="0" y="0" width="57" height="56" filterUnits="userSpaceOnUse" color-interpolation-filters="sRGB">
<feFlood flood-opacity="0" result="BackgroundImageFix"/>
<feColorMatrix in="SourceAlpha" type="matrix" values="0 0 0 0 0 0 0 0 0 0 0 0 0 0 0 0 0 0 127 0" result="hardAlpha"/>
<feOffset dx="-5" dy="4"/>
<feGaussianBlur stdDeviation="2"/>
<feComposite in2="hardAlpha" operator="out"/>
<feColorMatrix type="matrix" values="0 0 0 0 0 0 0 0 0 0.290196 0 0 0 0 0.678431 0 0 0 0.4 0"/>
<feBlend mode="normal" in2="BackgroundImageFix" result="effect1_dropShadow_7_35"/>
<feBlend mode="normal" in="SourceGraphic" in2="effect1_dropShadow_7_35" result="shape"/>
</filter>
<clipPath id="clip0_7_35">
<rect width="30.72" height="30.72" fill="white" transform="translate(17.88 8.64001)"/>
</clipPath>
</defs>
</svg>
