<svg width="24" height="24" viewBox="0 0 24 24" fill="none" xmlns="http://www.w3.org/2000/svg">
<path d="M11.4 3.59998C11.5404 3.59994 11.6764 3.64915 11.7843 3.73905C11.8922 3.82895 11.9651 3.95385 11.9904 4.09198L12 4.19998V7.79998C12.0001 8.49157 11.7613 9.16198 11.324 9.69772C10.8866 10.2335 10.2776 10.6017 9.6 10.74V19.8C9.60028 19.9499 9.54441 20.0945 9.44339 20.2053C9.34238 20.3161 9.20354 20.3851 9.05422 20.3986C8.90489 20.4122 8.75591 20.3693 8.6366 20.2785C8.5173 20.1877 8.43631 20.0555 8.4096 19.908L8.4 19.8V10.74C7.757 10.6085 7.17483 10.2698 6.74266 9.77588C6.31049 9.28194 6.05215 8.65995 6.0072 8.00518L6 7.79998V4.19998C5.99973 4.05005 6.0556 3.90544 6.15661 3.79464C6.25763 3.68384 6.39646 3.61488 6.54579 3.60133C6.69511 3.58779 6.84409 3.63064 6.9634 3.72145C7.08271 3.81226 7.16369 3.94445 7.1904 4.09198L7.2 4.19998V7.79998C7.19981 8.17237 7.31511 8.53566 7.53003 8.83977C7.74496 9.14388 8.04891 9.37385 8.4 9.49798V4.19998C8.39973 4.05005 8.4556 3.90544 8.55661 3.79464C8.65763 3.68384 8.79647 3.61488 8.94579 3.60133C9.09511 3.58779 9.24409 3.63064 9.3634 3.72145C9.48271 3.81226 9.56369 3.94445 9.5904 4.09198L9.6 4.19998V9.49678C10.2456 9.26878 10.722 8.68318 10.7916 7.97878L10.8 7.79998V4.19998C10.8 4.04085 10.8632 3.88824 10.9757 3.77572C11.0883 3.6632 11.2409 3.59998 11.4 3.59998ZM17.4 3.59998C17.5404 3.59994 17.6764 3.64915 17.7843 3.73905C17.8922 3.82895 17.9651 3.95385 17.9904 4.09198L18 4.19998V19.8C18.0003 19.9499 17.9444 20.0945 17.8434 20.2053C17.7424 20.3161 17.6035 20.3851 17.4542 20.3986C17.3049 20.4122 17.1559 20.3693 17.0366 20.2785C16.9173 20.1877 16.8363 20.0555 16.8096 19.908L16.8 19.8V13.2H15C14.8596 13.2 14.7236 13.1508 14.6157 13.0609C14.5078 12.971 14.4349 12.8461 14.4096 12.708L14.4 12.6V6.59998C14.4 5.80433 14.7161 5.04127 15.2787 4.47866C15.8413 3.91605 16.6044 3.59998 17.4 3.59998Z" fill="white"/>
</svg>
