<svg width="110" height="108" viewBox="0 0 110 108" fill="none" xmlns="http://www.w3.org/2000/svg">
<g filter="url(#filter0_d_1_209)">
<circle cx="59.5" cy="50" r="50" fill="#004AAD"/>
<g clip-path="url(#clip0_1_209)">
<path d="M38.7496 24.6368L61.047 46.2774H68.65C56.3173 38.4029 56.513 27.5605 59.7904 18.0252C71.5295 24.5357 77.8948 32.3597 73.3166 46.2837H77.156C75.4573 36.3822 80.5091 31.8419 89.0403 28.7793C90.1643 35.3276 89.1729 42.3812 80.5344 46.2837H96.9085C97.5652 46.2837 98.0957 46.8142 98.0957 47.4709C98.0957 47.5214 98.0957 47.572 98.0894 47.6162C97.7863 54.8592 96.1002 61.1866 92.6334 66.3268C89.1287 71.5112 83.837 75.4579 76.354 77.8828C76.335 77.8891 76.3161 77.8954 76.2908 77.9017V81.4948C76.2908 81.7726 76.0635 82 75.7857 82H53.5451C53.1915 82 52.8947 81.7095 52.8947 81.3495V77.8701C52.8252 77.8449 52.7558 77.8133 52.6926 77.7754C45.8285 74.5296 40.9851 70.2545 37.7772 65.1459C34.5566 60.0183 32.9969 54.0761 32.7127 47.5151C32.6875 46.8647 33.1927 46.309 33.8431 46.2774C33.862 46.2774 33.8747 46.2774 33.8936 46.2774V46.2711H39.299L28.4377 36.2243L28.4503 36.2117C28.3998 36.1801 28.3556 36.1423 28.3114 36.1044C28.2987 36.0917 28.2861 36.0854 28.2798 36.0728L22.9312 31.122C22.8807 31.0715 22.8302 31.021 22.786 30.9642C20.4053 27.9646 20.0643 25.022 20.961 22.6855C21.3841 21.5741 22.0913 20.6143 22.988 19.8502C23.8721 19.0987 24.9456 18.5494 26.1201 18.2526C28.8986 17.5453 32.2707 18.2399 35.0934 21.0816L38.7496 24.6368ZM70.7275 46.2774H72.6725L61.407 22.3382L70.7275 46.2774ZM77.3391 46.2774H78.7725L87.5185 31.4378L77.3391 46.2774ZM85.7756 55.8822C85.9145 55.4086 86.4071 55.1433 86.8807 55.2823C87.3543 55.4212 87.6195 55.9137 87.4806 56.3873C87.1143 57.6377 86.6723 58.8817 86.1482 60.1067C85.6367 61.3128 85.0557 62.4937 84.4179 63.6114C84.178 64.0408 83.6349 64.1861 83.2055 63.9461C82.7761 63.7061 82.6308 63.1631 82.8708 62.7337C83.4833 61.6665 84.0264 60.5488 84.5063 59.4184C85.0052 58.2628 85.4283 57.0756 85.7756 55.8822ZM81.7657 64.5271C82.0373 64.1166 82.593 64.0092 82.9971 64.2808C83.4076 64.5523 83.5149 65.108 83.2434 65.5122C82.7887 66.1878 82.3151 66.8319 81.8226 67.4382C81.3363 68.0381 80.8248 68.619 80.2944 69.1558C79.9534 69.5031 79.3851 69.5094 79.0378 69.1684C78.6904 68.8274 78.6841 68.2591 79.0251 67.9118C79.5114 67.4129 79.985 66.8825 80.4333 66.3268C80.9069 65.7521 81.349 65.1522 81.7657 64.5271ZM39.7853 63.8893C42.7343 68.5874 47.2051 72.5342 53.5577 75.5652H75.8172C82.6624 73.3109 87.4869 69.7051 90.6695 64.9943C93.7006 60.5046 95.2604 54.9855 95.6645 48.6518H35.1502C35.5481 54.3224 36.9941 59.45 39.7853 63.8893ZM30.7615 35.1572L42.6206 46.1259H57.4792L37.9666 27.1879L30.7615 35.1572ZM23.1712 23.538C22.5586 25.1356 22.8428 27.2258 24.592 29.4549L29.0186 33.5532L36.2679 25.5398C33.6473 22.9886 30.8688 19.4966 26.6948 20.5574C25.8676 20.7721 25.1224 21.151 24.5162 21.6688C23.9163 22.174 23.449 22.8055 23.1712 23.538Z" fill="white"/>
</g>
</g>
<defs>
<filter id="filter0_d_1_209" x="0.5" y="0" width="109" height="108" filterUnits="userSpaceOnUse" color-interpolation-filters="sRGB">
<feFlood flood-opacity="0" result="BackgroundImageFix"/>
<feColorMatrix in="SourceAlpha" type="matrix" values="0 0 0 0 0 0 0 0 0 0 0 0 0 0 0 0 0 0 127 0" result="hardAlpha"/>
<feOffset dx="-5" dy="4"/>
<feGaussianBlur stdDeviation="2"/>
<feComposite in2="hardAlpha" operator="out"/>
<feColorMatrix type="matrix" values="0 0 0 0 0 0 0 0 0 0.290196 0 0 0 0 0.678431 0 0 0 0.4 0"/>
<feBlend mode="normal" in2="BackgroundImageFix" result="effect1_dropShadow_1_209"/>
<feBlend mode="normal" in="SourceGraphic" in2="effect1_dropShadow_1_209" result="shape"/>
</filter>
<clipPath id="clip0_1_209">
<rect width="77.5957" height="64" fill="white" transform="translate(20.5 18)"/>
</clipPath>
</defs>
</svg>
