<svg width="26" height="24" viewBox="0 0 26 24" fill="none" xmlns="http://www.w3.org/2000/svg">
<path d="M19.1807 2.38419e-06H23.8258C24.6774 2.38419e-06 25.3742 0.696777 25.3742 1.54839V12.3871C25.3742 13.2387 24.6774 13.9355 23.8258 13.9355H19.1807C18.329 13.9355 17.6323 13.2387 17.6323 12.3871V1.54839C17.6323 0.696777 18.329 2.38419e-06 19.1807 2.38419e-06ZM23.8258 12.3871V1.54839H19.1807V12.3871H23.8258Z" fill="black"/>
<path d="M0.600011 12.232C0.600011 13.8578 1.91614 14.7094 3.69679 14.7094H8.88388C8.49679 16.103 8.34195 17.4191 8.34195 18.5804C8.34195 23.0707 9.58066 23.9998 10.6645 23.9998C11.3613 23.9998 11.9032 23.9223 12.6 23.5352C12.8323 23.3804 12.9097 23.2256 12.9871 22.9933L13.7613 18.8127C14.6129 16.6449 16.7032 14.7094 18.4065 13.3933V2.32234C17.7871 2.32234 17.1678 2.01266 16.3936 1.62556C15.5419 1.23846 14.6903 0.773948 13.7613 0.773948H6.40646C4.85808 0.773948 3.69679 2.01266 3.69679 3.09653C3.69679 3.32879 3.69678 3.48363 3.7742 3.63847C2.84517 4.02556 2.1484 4.79975 2.1484 5.80621C2.1484 6.27072 2.22582 6.65782 2.38066 7.04492C1.7613 7.43201 1.21937 8.12879 1.21937 8.90298C1.21937 9.3675 1.45163 9.83201 1.68388 10.2191C1.06453 10.6836 0.600011 11.4578 0.600011 12.232ZM2.22582 12.232C2.22582 11.2256 3.23227 11.1481 3.38711 10.6836C3.54195 10.1417 2.76775 9.98685 2.76775 9.05782C2.76775 8.12879 3.92904 8.12879 4.08388 7.58685C4.23872 6.9675 3.69679 6.81266 3.69679 5.88363V5.72879C3.85162 4.95459 5.01291 4.87718 5.24517 4.5675C5.47743 4.1804 5.24517 4.02556 5.24517 3.17395C5.24517 2.70943 5.78711 2.39975 6.40646 2.39975H13.7613C14.3807 2.39975 15 2.70943 15.7742 3.09653C16.3936 3.40621 17.0129 3.71588 17.6323 3.87072V11.9998C15.6968 13.4707 13.2194 15.6385 12.2903 18.3481V18.503L11.5936 22.3739C11.2839 22.4514 11.0516 22.4514 10.6645 22.4514C10.5097 22.4514 9.89033 21.5223 9.89033 18.5804C9.89033 17.4191 10.1226 16.1804 10.5097 14.7094H10.6645C11.129 14.7094 11.4387 14.3998 11.4387 13.9352C11.4387 13.4707 11.129 13.161 10.6645 13.161H3.69679C2.92259 13.161 2.22582 12.7739 2.22582 12.232Z" fill="black"/>
</svg>
