<svg width="83" height="83" viewBox="0 0 83 83" fill="none" xmlns="http://www.w3.org/2000/svg">
<g filter="url(#filter0_d_1_185)">
<circle cx="43.5" cy="37.5" r="37.5" fill="white"/>
<circle cx="43.5" cy="37.5" r="37" stroke="#004AAD" stroke-opacity="0.25"/>
</g>
<path d="M64.295 29.455L53.045 18.205C52.8341 17.9943 52.5481 17.876 52.25 17.876C51.9519 17.876 51.6659 17.9943 51.455 18.205L27.2244 42.4375C26.4516 43.1756 25.8342 44.0607 25.4083 45.0407C24.9825 46.0208 24.7568 47.0761 24.7445 48.1446C24.7323 49.2132 24.9337 50.2734 25.3369 51.263C25.7402 52.2525 26.3372 53.1516 27.0928 53.9072C27.8484 54.6628 28.7474 55.2598 29.737 55.663C30.7266 56.0663 31.7868 56.2677 32.8553 56.2555C33.9239 56.2432 34.9792 56.0175 35.9593 55.5917C36.9393 55.1658 37.8244 54.5484 38.5625 53.7756L59.6075 32.7325L63.8562 31.3169C64.0379 31.256 64.2011 31.1498 64.3302 31.0083C64.4593 30.8667 64.5501 30.6946 64.5941 30.5081C64.638 30.3216 64.6336 30.127 64.5813 29.9427C64.5289 29.7584 64.4304 29.5905 64.295 29.455ZM36.9744 52.1875C36.4385 52.7234 35.8022 53.1485 35.102 53.4386C34.4018 53.7286 33.6513 53.8779 32.8934 53.8779C32.1355 53.8779 31.3851 53.7286 30.6848 53.4386C29.9846 53.1485 29.3484 52.7234 28.8125 52.1875C28.2766 51.6516 27.8515 51.0153 27.5614 50.3151C27.2714 49.6149 27.1221 48.8644 27.1221 48.1065C27.1221 47.3486 27.2714 46.5982 27.5614 45.898C27.8515 45.1978 28.2766 44.5615 28.8125 44.0256L34.2744 38.5656C35.9319 37.9769 38.5569 37.7106 41.9769 39.5031C44.2794 40.705 46.3137 41.1269 48.0275 41.1362L36.9744 52.1875ZM58.6437 30.6831C58.4784 30.7385 58.3282 30.8316 58.205 30.955L50.7237 38.4344C49.0662 39.0231 46.4412 39.2894 43.0212 37.4969C40.7187 36.3006 38.6844 35.875 36.9706 35.875L52.25 20.5919L61.4169 29.7587L58.6437 30.6831Z" fill="#004AAD"/>
<path d="M28 20L60 55" stroke="#004AAD" stroke-width="2" stroke-linecap="round"/>
<defs>
<filter id="filter0_d_1_185" x="0" y="0" width="83" height="83" filterUnits="userSpaceOnUse" color-interpolation-filters="sRGB">
<feFlood flood-opacity="0" result="BackgroundImageFix"/>
<feColorMatrix in="SourceAlpha" type="matrix" values="0 0 0 0 0 0 0 0 0 0 0 0 0 0 0 0 0 0 127 0" result="hardAlpha"/>
<feOffset dx="-2" dy="4"/>
<feGaussianBlur stdDeviation="2"/>
<feComposite in2="hardAlpha" operator="out"/>
<feColorMatrix type="matrix" values="0 0 0 0 0 0 0 0 0 0.290196 0 0 0 0 0.678431 0 0 0 0.4 0"/>
<feBlend mode="normal" in2="BackgroundImageFix" result="effect1_dropShadow_1_185"/>
<feBlend mode="normal" in="SourceGraphic" in2="effect1_dropShadow_1_185" result="shape"/>
</filter>
</defs>
</svg>
