<svg width="83" height="83" viewBox="0 0 83 83" fill="none" xmlns="http://www.w3.org/2000/svg">
<g filter="url(#filter0_d_1_167)">
<circle cx="43.5" cy="37.5" r="37.5" fill="white"/>
<circle cx="43.5" cy="37.5" r="37" stroke="#004AAD" stroke-opacity="0.25"/>
</g>
<path d="M61.384 20.51C61.1086 20.0871 60.7321 19.7395 60.2887 19.4986C59.8452 19.2576 59.3487 19.131 58.844 19.13H50.024C49.4512 19.1273 48.8898 19.2901 48.4073 19.5988C47.9248 19.9074 47.5417 20.3489 47.304 20.87L44 27.97L40.68 20.87C40.4423 20.3489 40.0592 19.9074 39.5767 19.5988C39.0942 19.2901 38.5328 19.1273 37.96 19.13H29.144C28.6396 19.1323 28.1438 19.2616 27.7026 19.5062C27.2614 19.7508 26.889 20.1027 26.6199 20.5294C26.3508 20.956 26.1935 21.4436 26.1628 21.9472C26.132 22.4507 26.2288 22.9538 26.444 23.41L33.904 39.45C33.3025 40.8463 32.9896 42.3498 32.984 43.87C32.984 46.7874 34.1429 49.5853 36.2058 51.6482C38.2687 53.7111 41.0666 54.87 43.984 54.87C46.9014 54.87 49.6993 53.7111 51.7622 51.6482C53.8251 49.5853 54.984 46.7874 54.984 43.87C54.9882 42.3552 54.6748 40.8563 54.064 39.47L61.564 23.41C61.7776 22.9498 61.873 22.4436 61.8415 21.9372C61.8101 21.4308 61.6528 20.9403 61.384 20.51ZM28.244 22.57C28.1737 22.4141 28.1425 22.2434 28.1529 22.0726C28.1634 21.9019 28.2152 21.7363 28.304 21.59C28.3935 21.4484 28.5176 21.3319 28.6645 21.2515C28.8115 21.171 28.9765 21.1292 29.144 21.13H37.964C38.1566 21.1294 38.3454 21.1835 38.5083 21.2863C38.6713 21.389 38.8016 21.536 38.884 21.71L44.104 32.87H43.984C42.2578 32.873 40.5565 33.2819 39.0174 34.0636C37.4784 34.8453 36.1447 35.9779 35.124 37.37L28.244 22.57ZM43.984 52.87C42.204 52.87 40.4639 52.3422 38.9839 51.3533C37.5038 50.3643 36.3503 48.9587 35.6691 47.3142C34.9879 45.6697 34.8097 43.8601 35.1569 42.1142C35.5042 40.3684 36.3614 38.7647 37.62 37.5061C38.8787 36.2474 40.4824 35.3902 42.2282 35.043C43.974 34.6957 45.7836 34.8739 47.4281 35.5551C49.0727 36.2363 50.4783 37.3899 51.4672 38.8699C52.4562 40.3499 52.984 42.09 52.984 43.87C52.984 45.0519 52.7512 46.2223 52.2989 47.3142C51.8466 48.4061 51.1837 49.3983 50.348 50.234C49.5122 51.0697 48.5201 51.7327 47.4281 52.185C46.3362 52.6372 45.1659 52.87 43.984 52.87ZM59.764 22.57L52.844 37.37C51.2866 35.2314 49.005 33.7316 46.424 33.15L45.104 30.31L49.104 21.71C49.1864 21.536 49.3167 21.389 49.4797 21.2863C49.6426 21.1835 49.8314 21.1294 50.024 21.13H58.844C59.012 21.1269 59.1778 21.1677 59.3252 21.2483C59.4725 21.329 59.5962 21.4468 59.684 21.59C59.7797 21.733 59.8373 21.8981 59.8513 22.0696C59.8653 22.2412 59.8353 22.4134 59.764 22.57Z" fill="#004AAD"/>
<path d="M44.154 46.76L46.202 47.836C46.2596 47.8666 46.3247 47.8804 46.3897 47.8759C46.4548 47.8713 46.5173 47.8485 46.57 47.8102C46.6228 47.7718 46.6637 47.7194 46.6881 47.6589C46.7125 47.5984 46.7194 47.5322 46.708 47.468L46.308 45.188C46.2987 45.1322 46.3031 45.0751 46.3209 45.0214C46.3387 44.9677 46.3693 44.9192 46.41 44.88L48.066 43.266C48.1138 43.2202 48.1476 43.1617 48.1635 43.0974C48.1794 43.0331 48.1767 42.9656 48.1557 42.9028C48.1348 42.8399 48.0965 42.7843 48.0452 42.7424C47.9939 42.7005 47.9318 42.674 47.866 42.666L45.6 42.338C45.543 42.3287 45.4892 42.3056 45.4432 42.2708C45.3972 42.2359 45.3604 42.1903 45.336 42.138L44.312 40.064C44.2835 40.0053 44.239 39.9558 44.1836 39.9211C44.1283 39.8865 44.0643 39.8681 43.999 39.8681C43.9337 39.8681 43.8697 39.8865 43.8144 39.9211C43.759 39.9558 43.7145 40.0053 43.686 40.064L42.662 42.138C42.6383 42.1904 42.6019 42.2361 42.5562 42.271C42.5105 42.3059 42.4568 42.3289 42.4 42.338L40.11 42.67C40.0443 42.678 39.9821 42.7045 39.9308 42.7464C39.8796 42.7883 39.8412 42.8439 39.8203 42.9068C39.7993 42.9696 39.7966 43.0371 39.8125 43.1014C39.8284 43.1657 39.8622 43.2241 39.91 43.27L41.566 44.884C41.6064 44.9234 41.6366 44.972 41.654 45.0257C41.6714 45.0793 41.6755 45.1364 41.666 45.192L41.266 47.472C41.2546 47.5362 41.2615 47.6024 41.2859 47.6629C41.3103 47.7234 41.3512 47.7758 41.404 47.8142C41.4567 47.8525 41.5192 47.8753 41.5843 47.8799C41.6494 47.8844 41.7144 47.8706 41.772 47.84L43.82 46.764C43.8708 46.735 43.928 46.7194 43.9865 46.7187C44.0449 46.718 44.1026 46.7322 44.154 46.76Z" fill="#004AAD"/>
<defs>
<filter id="filter0_d_1_167" x="0" y="0" width="83" height="83" filterUnits="userSpaceOnUse" color-interpolation-filters="sRGB">
<feFlood flood-opacity="0" result="BackgroundImageFix"/>
<feColorMatrix in="SourceAlpha" type="matrix" values="0 0 0 0 0 0 0 0 0 0 0 0 0 0 0 0 0 0 127 0" result="hardAlpha"/>
<feOffset dx="-2" dy="4"/>
<feGaussianBlur stdDeviation="2"/>
<feComposite in2="hardAlpha" operator="out"/>
<feColorMatrix type="matrix" values="0 0 0 0 0 0 0 0 0 0.290196 0 0 0 0 0.678431 0 0 0 0.4 0"/>
<feBlend mode="normal" in2="BackgroundImageFix" result="effect1_dropShadow_1_167"/>
<feBlend mode="normal" in="SourceGraphic" in2="effect1_dropShadow_1_167" result="shape"/>
</filter>
</defs>
</svg>
