<svg width="40" height="40" viewBox="0 0 40 40" fill="none" xmlns="http://www.w3.org/2000/svg">
<g id="dart-mission-goal-success-svgrepo-com 1">
<path id="Vector" d="M38.625 7C38.5 6.5 38 6.25 37.5 6.25H33.75V2.5C33.75 2 33.5 1.5 33 1.375C32.5 1.125 32 1.25 31.625 1.625L26.625 6.625C26.375 6.875 26.25 7.125 26.25 7.5V12L19.125 19.125C18.625 19.625 18.625 20.375 19.125 20.875C19.375 21.125 19.75 21.25 20 21.25C20.25 21.25 20.625 21.125 20.875 20.875L28 13.75H32.5C32.875 13.75 33.125 13.625 33.375 13.375L38.375 8.375C38.75 8 38.875 7.5 38.625 7Z" fill="white"/>
<path id="Vector_2" d="M22.625 22.625C22 23.375 21 23.75 20 23.75C19 23.75 18 23.375 17.375 22.625C15.875 21.125 15.875 18.75 17.375 17.375L20.875 13.875C20.625 13.75 20.25 13.75 20 13.75C16.5 13.75 13.75 16.5 13.75 20C13.75 23.5 16.5 26.25 20 26.25C23.5 26.25 26.25 23.5 26.25 20C26.25 19.75 26.25 19.375 26.125 19.125L22.625 22.625Z" fill="white"/>
<path id="Vector_3" d="M35.125 15.125C34.5 15.875 33.5 16.25 32.5 16.25H29L28.125 17.125C28.5 18 28.625 19 28.625 20C28.625 24.875 24.75 28.75 19.875 28.75C15 28.75 11.125 24.875 11.125 20C11.125 15.125 15 11.25 19.875 11.25C20.875 11.25 21.875 11.5 22.75 11.75L23.75 11V7.5C23.75 6.5 24.125 5.5 24.875 4.875L26.125 3.625C24.125 2.875 22.125 2.5 20 2.5C10.375 2.5 2.5 10.375 2.5 20C2.5 29.625 10.375 37.5 20 37.5C29.625 37.5 37.5 29.625 37.5 20C37.5 17.875 37.125 15.875 36.375 13.875L35.125 15.125Z" fill="white"/>
</g>
</svg>
