<svg width="25" height="24" viewBox="0 0 25 24" fill="none" xmlns="http://www.w3.org/2000/svg">
<path d="M19.5577 7.34615H3.48077C3.28696 7.34615 3.10108 7.42315 2.96404 7.56019C2.82699 7.69724 2.75 7.88311 2.75 8.07692V12.4615C2.75218 13.7057 3.01825 14.9352 3.53062 16.0689C4.043 17.2026 4.79003 18.2147 5.7224 19.0385H3.48077C3.28696 19.0385 3.10108 19.1155 2.96404 19.2525C2.82699 19.3895 2.75 19.5754 2.75 19.7692C2.75 19.963 2.82699 20.1489 2.96404 20.286C3.10108 20.423 3.28696 20.5 3.48077 20.5H19.5577C19.7515 20.5 19.9374 20.423 20.0744 20.286C20.2115 20.1489 20.2885 19.963 20.2885 19.7692C20.2885 19.5754 20.2115 19.3895 20.0744 19.2525C19.9374 19.1155 19.7515 19.0385 19.5577 19.0385H17.3161C18.4352 18.0465 19.2839 16.7864 19.7824 15.3764C20.7106 15.3192 21.582 14.9103 22.2192 14.2329C22.8563 13.5555 23.2112 12.6607 23.2115 11.7308V11C23.2115 10.0309 22.8266 9.10157 22.1414 8.41634C21.4561 7.73111 20.5268 7.34615 19.5577 7.34615ZM21.75 11.7308C21.7497 12.2036 21.5965 12.6636 21.3134 13.0422C21.0302 13.4208 20.6323 13.6978 20.1788 13.8317C20.2513 13.3786 20.2879 12.9204 20.2885 12.4615V8.93375C20.7158 9.08483 21.0858 9.36464 21.3475 9.73467C21.6092 10.1047 21.7499 10.5468 21.75 11V11.7308ZM10.7885 5.15385V2.23077C10.7885 2.03696 10.8655 1.85108 11.0025 1.71404C11.1395 1.57699 11.3254 1.5 11.5192 1.5C11.713 1.5 11.8989 1.57699 12.036 1.71404C12.173 1.85108 12.25 2.03696 12.25 2.23077V5.15385C12.25 5.34766 12.173 5.53353 12.036 5.67058C11.8989 5.80762 11.713 5.88462 11.5192 5.88462C11.3254 5.88462 11.1395 5.80762 11.0025 5.67058C10.8655 5.53353 10.7885 5.34766 10.7885 5.15385ZM13.7115 5.15385V2.23077C13.7115 2.03696 13.7885 1.85108 13.9256 1.71404C14.0626 1.57699 14.2485 1.5 14.4423 1.5C14.6361 1.5 14.822 1.57699 14.959 1.71404C15.0961 1.85108 15.1731 2.03696 15.1731 2.23077V5.15385C15.1731 5.34766 15.0961 5.53353 14.959 5.67058C14.822 5.80762 14.6361 5.88462 14.4423 5.88462C14.2485 5.88462 14.0626 5.80762 13.9256 5.67058C13.7885 5.53353 13.7115 5.34766 13.7115 5.15385ZM7.86538 5.15385V2.23077C7.86538 2.03696 7.94238 1.85108 8.07942 1.71404C8.21647 1.57699 8.40234 1.5 8.59615 1.5C8.78997 1.5 8.97584 1.57699 9.11289 1.71404C9.24993 1.85108 9.32692 2.03696 9.32692 2.23077V5.15385C9.32692 5.34766 9.24993 5.53353 9.11289 5.67058C8.97584 5.80762 8.78997 5.88462 8.59615 5.88462C8.40234 5.88462 8.21647 5.80762 8.07942 5.67058C7.94238 5.53353 7.86538 5.34766 7.86538 5.15385Z" fill="black"/>
</svg>
