<svg width="40" height="40" viewBox="0 0 40 40" fill="none" xmlns="http://www.w3.org/2000/svg">
<path d="M36.4833 19.25C36.2667 18.8166 30.9 8.33331 20 8.33331C9.1 8.33331 3.73333 18.8166 3.51666 19.25C3.39944 19.4826 3.33838 19.7395 3.33838 20C3.33838 20.2605 3.39944 20.5173 3.51666 20.75C3.73333 21.1833 9.1 31.6666 20 31.6666C30.9 31.6666 36.2667 21.1833 36.4833 20.75C36.6006 20.5173 36.6616 20.2605 36.6616 20C36.6616 19.7395 36.6006 19.4826 36.4833 19.25Z" fill="white"/>
<path d="M20 25C22.7614 25 25 22.7614 25 20C25 17.2386 22.7614 15 20 15C17.2386 15 15 17.2386 15 20C15 22.7614 17.2386 25 20 25Z" fill="#004AAD"/>
</svg>
